<?xml version="1.0" encoding="utf-8"?>
<!-- Generator: Adobe Illustrator 27.4.1, SVG Export Plug-In . SVG Version: 6.00 Build 0)  -->
<svg version="1.1" id="Layer_1" xmlns="http://www.w3.org/2000/svg" xmlns:xlink="http://www.w3.org/1999/xlink" x="0px" y="0px"
	 viewBox="0 0 400 400" style="enable-background:new 0 0 400 400;" xml:space="preserve">
<style type="text/css">
	.st0{fill:none;}
	.st1{fill:#D73F28;}
	.st2{fill:#FFFFFF;}
</style>
<line class="st0" x1="127.9" y1="-155.4" x2="198.6" y2="-226.1"/>
<g>
	<path class="st1" d="M136.1,284.8c-0.9-0.2-1.8,0-2.7-0.4c-1.3-0.6-1.9-1.6-1.9-2.9c-0.1-1.2,0-2.4,0-3.6c0.1-1.9,0-3.9,0.1-5.8
		c0-0.9,0-1.8,0.1-2.7c0.1-2.3,0.1-4.6,0.2-6.9c0-0.6,0-1.2,0.1-1.8c0.2-2.1,0.2-4.1,0.3-6.2c0.1-1.3,0.3-2.5,0.9-3.7
		c0.8-1.6,2.1-2.7,3.7-3.6c0.3-0.2,0.6-0.3,0.9-0.4c0.5-0.1,0.6-0.4,0.6-0.8c-0.1-2.2-0.1-4.3-0.1-6.5c0-2,0-3.9,0.2-5.9
		c0.2-1.5,0.4-3,0.8-4.5c0.3-1.2,0.7-2.4,1.5-3.3c1-1.2,2.3-2.1,3.9-2.6c2.7-0.8,5.5-1.1,8.3-1.4c1.6-0.1,3.2-0.1,4.7,0.1
		c2.2,0.3,4,1.2,5.6,2.8c1.7,1.8,2.4,3.9,2.9,6.2c0.4,1.7,0.6,3.4,0.7,5.1c0.1,0.8,0.1,1.6,0.1,2.5c-0.1,2.1-0.1,4.2-0.2,6.3
		c0,0.2,0.1,0.3,0.3,0.4c1.9,0.7,3.5,1.8,4.8,3.4c0.6,0.7,0.9,1.5,1.2,2.4c0.5,1.7,0.6,3.5,0.7,5.3c0.1,1.6,0.2,3.2,0.3,4.8
		c0,1,0,1.9,0,2.9c0,0.8,0,1.6,0.1,2.5c0,1.1,0.1,2.2,0.1,3.4c0,1.3,0.1,2.6,0.1,3.8c0,0.9,0,1.8,0,2.7c0,1.7,0,3.4,0,5.2
		c0,1.4-1,2.8-2.6,2.8c-1.6,0-3.2,0.2-4.8,0.2c-1.1,0-2.3,0-3.4,0.1c-1.2,0-2.4,0.1-3.6,0.1c-1.1,0-2.1,0.1-3.2,0.1
		c-1.4,0.1-2.7,0.1-4.1,0.2c-0.8,0-1.6,0-2.5,0c-1.7,0-3.5,0-5.2,0c-0.8,0-1.7-0.1-2.5-0.1c-1.1-0.1-2.3-0.1-3.4-0.1
		C137.9,284.9,137.1,284.8,136.1,284.8z M145.4,234.9c-0.2,1.5-0.1,3,0,4.5c0,1,0,2,0.1,2.9c0.1,0.8,0.1,1.6,0.1,2.4
		c0,0.2,0,0.5,0.4,0.5c2.1-0.2,4.2-0.4,6.3-0.6c1.3-0.1,2.7-0.2,4-0.3c1.1-0.1,2.3,0,3.4-0.1c0.2,0,0.3-0.1,0.3-0.3
		c0-1.8-0.1-3.6-0.1-5.4c0-1.6,0.1-3.2,0-4.8c0-0.7-0.1-1.4-0.4-2.1c-0.9-1.9-2.4-2.8-4.4-3c-1.1-0.2-2.3,0-3.4,0
		c-1.1,0-2.2,0.1-3.2,0.6c-1,0.5-1.9,1-2.4,2.1C145.6,232.4,145.4,233.6,145.4,234.9z M153.6,254.2c-1.2-0.2-2.2,0.2-3,1.2
		c-0.7,0.8-1.1,1.8-1.2,2.8c-0.2,1-0.1,2-0.1,3c0,0.5-0.1,1.1,0,1.6c0.1,1.3,0,2.6,0.1,3.9c0,1.1-0.1,2.1,0,3.2c0.1,1.6,0,3.3,0,4.9
		c0,0.5,0.2,0.8,0.7,0.9c1.1,0.1,2.3-0.1,3.4,0c1.3,0,2.5,0,3.8,0c0.4,0,0.9-0.4,0.8-0.7c-0.2-0.8-0.2-1.6-0.1-2.4
		c0.1-0.7,0-1.4,0-2.2c0-1.7-0.1-3.4,0-5c0-0.5,0-0.9,0-1.4c0-0.9-0.1-1.8-0.1-2.8c0-0.9,0-1.9-0.1-2.8
		C157.5,255.9,155.7,254.2,153.6,254.2z"/>
	<path class="st1" d="M250.9,237.9c0.6,1.2,1,2.5,1.7,3.7c1.7,3.1,1.5,6.5,1.4,9.8c0,1.8-1.4,2.9-3.1,3.2c-5.3,0.9-10.6,2-16,2.6
		c-4.2,0.5-8.4,0.6-12.6,0.7c-2.1,0-4.3-0.3-6.4-0.6c-4.8-0.7-5.9-3.6-5.2-8.4c0.3-2.2,0.4-4.6,0.1-6.8c-0.3-2.5-2.3-3.3-4.4-1.9
		c-1,0.6-1.9,1.5-2.8,2.2c-0.7,0.5-1.3,1-2,1.3c-1.7,0.8-3.2-0.1-3.5-2c-0.1-1-0.1-2-0.3-2.9c-0.4-2.7-2.3-3.8-4.6-2.3
		c-2.3,1.5-4.5,3.3-6.4,5.3c-2.4,2.4-5.2,3-8.3,2.4c-11-1.8-18.8-8.2-23.9-17.9c-4.3-8.1-5.9-16.9-5.3-26c0-0.7,0-1.3,0-2
		c0-0.3-0.1-0.5-0.1-0.9c-2.8-0.4-5.4,0.3-7.9,1.3c-1.7,0.7-2.1,0.5-2.5-1.3c-0.5-2.9,0.3-5.5,2-7.9c0.4-0.5,0.9-1.5,0.7-1.9
		c-0.3-0.5-1.3-0.7-1.9-0.8c-2.7-0.2-2.8-0.1-2.3-2.9c1.2-7.4,3.5-14.5,6.5-21.3c0.5-1.2,1.2-1.7,2.5-1.6c2.4,0.1,4.8,0.2,7.2,0.1
		c0.6,0,1.3-0.6,1.9-0.9c-0.4-0.6-0.7-1.3-1.2-1.7c-1.7-1-3.5-1.8-5.3-2.7c-1-0.5-1.3-1.1-0.7-2.1c1.5-2.5,3-5.1,4.5-7.6
		c1.6,1.1,3,2,4.5,2.9c0.3,0.2,0.9,0.1,1.3,0.1c-0.2-0.4-0.3-1-0.7-1.2c-1.3-0.9-2.6-1.8-4.1-2.7c2.5-3.2,5.3-6,8.7-8.1
		c0.4-0.2,1.3,0.2,1.9,0.5c3.5,2,6.9,4,10.4,6.1c0.1-0.2,0.2-0.3,0.3-0.5c-2.7-3.3-5.3-6.6-8-10c-1.4-1.7-1.4-1.8,0.3-3.3
		c5.2-4.4,11.1-7.6,17.3-10.3c1-0.4,1.6-0.1,2.3,0.5c2.9,2.5,5.9,4.9,8.9,7.3c0.5,0.4,1.4,0.2,2.1,0.3c0-0.7,0.2-1.4,0-2
		c-1.4-3.5-2.8-6.9-4.3-10.3c-0.6-1.3-0.4-2.1,1-2.7c5.9-2.5,12-4.2,18.3-5.2c2.4-0.4,2.5-0.2,2.7,2.3c0.2,2.8,0.6,5.7,1,8.5
		c0.1,0.5,0.7,0.9,1.1,1.4c0.5-0.4,1.2-0.8,1.3-1.3c0.8-2.8,1.5-5.7,2.2-8.6c0.3-1.3,1.1-1.7,2.4-1.7c9.1,0.4,17.5,3.2,25.3,7.9
		c1.3,0.8,1.2,1.4-0.2,2.4c-9.2,6.4-15,15-17.8,25.8c-0.6,2.5-0.8,5.2-1.2,7.8c-0.2,1,0.1,1.8,1,2.6c1.5,1.4,1.9,3.2,1.4,5.1
		c-0.5,1.7-2,2.6-3.7,2.1c-0.9-0.3-1.7-0.7-2.6-1.1c-18.6-9.4-36.4-8.4-53.5,3.6c-0.9,0.6-1.5,1.3-1.5,2.5c0,8.1-0.2,16.2,1,24.3
		c1.8,11.6,5.7,22.3,13.8,31.1c4,4.4,9,7.7,14.4,10.1c10,4.5,20.6,6.2,31.4,7c3.2,0.2,6.5,0.2,9.7-0.1
		C244.6,239.2,247.7,238.4,250.9,237.9z M180.6,124c-0.3,0.2-0.6,0.3-0.6,0.4c0,0.4,0,0.8,0.1,1.1c2.9,5.5,6.5,10.5,10.8,15
		c0.3,0.3,0.8,0.3,1.2,0.5c-0.1-0.5-0.1-1.1-0.3-1.4c-4.2-4.4-7.7-9.3-10.5-14.6C181.1,124.6,180.8,124.4,180.6,124z M237.8,121.1
		c-0.1-0.2-0.2-0.5-0.3-0.5c-0.2-0.1-0.6-0.1-0.7,0c-0.3,0.2-0.5,0.6-0.7,0.9c-3,4.3-5.2,9-6.8,14c-0.2,0.5,0.1,1.1,0.2,1.7
		c0.3-0.4,0.8-0.8,1-1.3c1.6-4.9,3.7-9.5,6.6-13.7C237.4,121.8,237.6,121.5,237.8,121.1z M208.3,123.3c0-1.3-1.2-2.7-2.4-2.3
		c-1.1,0.4-2.2,1.5-2.8,2.6c-0.5,0.9,1.4,2.4,2.6,2.3C207.2,126,208.3,124.8,208.3,123.3z M169.2,187.2c0-1.4-1.1-2.4-2.4-2.3
		c-1.3,0-2.4,1.2-2.4,2.4c0,1.7,0.9,2.8,2.2,2.7C168.1,189.9,169.2,188.7,169.2,187.2z M153.8,177.4c0.5-0.3,0.8-0.5,1.1-0.7
		c-0.3-0.3-0.6-0.8-1-0.9c-3.6-1.2-7.3-2.4-10.9-3.6c-0.4-0.1-0.8,0.1-1.3,0.2c0.2,0.3,0.4,0.8,0.7,0.9
		C146.2,174.7,149.9,176,153.8,177.4z M163.4,161.9c-0.3-1.5-1.7-2.7-3-2.7c-1.4,0-1.5,1.1-1.6,2c-0.2,1.1,1.4,3.2,2.1,2.9
		C161.9,163.7,162.6,162.7,163.4,161.9z M242.3,118.9c0-1.9-0.9-3.1-1.8-2.8c-0.6,0.2-1.2,1-1.3,1.6c-0.2,1.3,0.9,2.8,1.8,2.5
		C241.6,120,242,119.2,242.3,118.9z M222.6,134.3c0.5-0.5,0.7-0.6,0.8-0.8c0.3-2.2,0.6-4.3,0.8-6.5c0-0.2-0.4-0.5-0.7-0.7
		c-0.2,0.3-0.5,0.5-0.6,0.9c-0.3,1.9-0.5,3.8-0.7,5.7C222.3,133.1,222.5,133.5,222.6,134.3z M145.6,183.7c0.3-0.2,0.6-0.4,1-0.6
		c-0.3-0.3-0.5-0.7-0.8-0.8c-1.6-0.4-3.2-0.8-4.8-1.2c-0.3-0.1-0.7,0.2-1.1,0.3c0.2,0.3,0.4,0.8,0.7,0.9
		C142.2,182.8,143.8,183.2,145.6,183.7z M182.4,134.8c-1.3-1.4-2.5-2.8-3.8-4.1c-0.1-0.1-0.6,0-0.7,0.2c-0.1,0.2-0.1,0.6,0,0.8
		c1,1.3,2.1,2.5,3.2,3.8c0.1,0.2,0.5,0.2,0.7,0.2C182.1,135.4,182.2,135.1,182.4,134.8z M156.4,153.8c-0.2-0.4-0.2-0.7-0.4-0.7
		c-1.3-0.7-2.6-1.3-3.9-1.9c-0.1-0.1-0.5,0.2-0.6,0.4c-0.1,0.2,0,0.6,0.2,0.7c1.2,0.7,2.5,1.3,3.8,1.9
		C155.6,154.2,156,153.9,156.4,153.8z M171.3,193.7c-1-0.8-1.6-1.4-2.3-1.8c-0.1-0.1-1.1,0.9-1,1.1c0.4,0.7,1,1.3,1.6,1.8
		C169.8,194.8,170.5,194.2,171.3,193.7z M208,133.7c0.5-0.6,1.1-1,1-1.2c-0.2-0.5-0.7-1-1-1.5c-0.3,0.3-0.9,0.6-0.8,0.9
		C207.2,132.5,207.7,132.9,208,133.7z M169.2,198.9c-0.7-0.4-1.1-0.9-1.5-0.8c-0.4,0.1-0.9,0.7-0.9,1c0,0.4,0.6,0.9,1,0.9
		C168.2,200,168.6,199.4,169.2,198.9z M164.8,164.5c-0.5,0.8-1,1.2-0.9,1.6c0,0.4,0.5,0.8,0.8,1.2c0.3-0.4,0.8-0.7,0.9-1.1
		C165.6,165.9,165.2,165.4,164.8,164.5z M206.1,129.2c-0.6-0.4-0.9-0.9-1.2-0.8c-0.3,0.1-0.9,0.6-0.8,0.9c0.1,0.4,0.5,0.8,0.9,1
		C205.2,130.3,205.6,129.6,206.1,129.2z M166.5,162.6c-0.6-0.5-1-0.9-1.3-0.9c-0.4,0.1-0.7,0.6-1.1,0.9c0.3,0.3,0.6,0.7,1,0.8
		C165.5,163.4,165.9,163,166.5,162.6z M165.8,191.7c-0.4,0.8-0.8,1.2-0.8,1.6c0,0.3,0.6,0.6,0.9,0.9c0.3-0.4,0.8-0.7,0.8-1.2
		C166.8,192.7,166.3,192.3,165.8,191.7z"/>
	<path class="st2" d="M225.6,207c-0.1,3.3-0.7,6.4-2.5,9.1c-2.5,3.8-6,5.9-10.6,5.1c-3.5-0.6-7-1.4-10.2-2.8
		c-8.3-3.7-10.5-11.1-5.7-18.8c2-3.2,4.5-5.9,7.7-8c7.6-5,15.2-2.8,19.2,5.6C225,200.3,225.5,203.6,225.6,207z"/>
	<path class="st2" d="M261.6,207.7c-0.1,3.3-0.8,6.6-3,9.4c-2.1,2.7-4.9,3.9-8.4,3.5c-3.4-0.4-6.6-1.3-9.6-3.1
		c-4.9-2.9-6.7-8.3-4.6-13.5c1.7-4.1,4.5-7.4,8.2-9.9c5.9-3.9,12.1-2.2,15.2,4.2C260.8,201.2,261.5,204.3,261.6,207.7z"/>
	<path class="st2" d="M226.2,227.1c0.2-3,1.8-6.2,3.6-9.4c0.6-1,1.2-2.1,2-3c1.4-1.5,3-1.7,4.2-0.1c1.6,2,2.9,4.3,4.2,6.6
		c1,2,1.9,4.1,2.6,6.2c1.1,3.2-1.1,6-4.2,5.2c-0.9-0.2-1.7-1.2-2.4-2c-1-1.2-1.6-1.3-2.6-0.1c-1.5,1.8-3.1,2.5-4.6,1.9
		C227,231.9,226.2,230.3,226.2,227.1z M236.2,218.2c-0.5,0.7-1,1.3-0.9,1.4c0.6,0.8,1.3,1.5,2,2.2c0.3-0.3,0.9-0.8,0.9-0.9
		C237.6,220.1,237,219.3,236.2,218.2z M238.7,225c0.5-0.6,1-0.9,0.9-1.3c0-0.3-0.5-0.8-0.9-0.9c-0.3,0-0.9,0.5-0.9,0.8
		C237.8,224.1,238.3,224.4,238.7,225z"/>
	<path class="st1" d="M262.1,231c2.1-2.7,4.2-5.4,6.3-8.1c0.3,2.7-0.1,5.6-0.8,8.4c0-0.4,0.2-1.1,0.1-1.2c-0.6-0.5-1.3-0.8-2-1.1
		c-0.2-0.1-0.9,0.8-0.9,0.9c0.4,0.6,0.9,1.2,1.5,1.5c0.3,0.2,0.9-0.1,1.4-0.1c-0.7,2.5-1.9,4.5-4.7,5.1c-2.1,0.5-3.7-0.8-5.6-1.6
		C259.1,233.4,260.7,232.2,262.1,231c-0.2,0.7-0.3,1.6,0.7,1.7c0.3,0.1,1-0.5,1.1-0.8C264.3,231,263.5,230.6,262.1,231z"/>
	<path class="st1" d="M233.9,161c5.8-1,23.5,20.1,22.6,26.4C251.8,176.3,244.7,167.3,233.9,161z"/>
	<path class="st1" d="M209.1,157.4c-0.7,0.1-1.4,0.2-2.1,0.1c-7-0.6-13.9,0-20.6,2.1c-2.3,0.7-4.4,1.9-6.6,2.9
		c-0.4,0.2-0.8,0.4-1.3,0.7c-0.1-0.1-0.3-0.3-0.4-0.4c0.4-0.4,0.6-0.9,1.1-1.1c3.7-1.5,7.3-3.3,11.1-4.2c5.5-1.4,11.2-1.4,16.8-1.1
		c0.5,0,1,0.1,1.5,0.2c0.1,0,0.3,0.1,0.4,0.2C209.1,157.1,209.1,157.2,209.1,157.4z"/>
	<path class="st1" d="M207.2,160.1c-5.3,0.3-10.6,0.6-16,0.9C192.4,159.4,204.9,158.6,207.2,160.1z"/>
	<path class="st1" d="M264.1,209.4c1.8,4,2.2,8.2,2,12.5c-0.2,0-0.4,0.1-0.6,0.1c-0.2-2.1-0.3-4.2-0.7-6.2c-0.3-2.1-0.9-4.1-1.4-6.2
		C263.6,209.5,263.8,209.5,264.1,209.4z"/>
	<path class="st1" d="M246.4,176.7c-2-1.9-4.1-3.9-6.1-5.8c1.6-0.3,6.1,3.8,6.5,5.4C246.6,176.5,246.5,176.6,246.4,176.7z"/>
	<path class="st1" d="M212.8,159.3c1.1-0.9,4.4-0.6,6,0.5C216.5,160.5,214.7,159.5,212.8,159.3z"/>
	<path class="st1" d="M242.5,178.6c-0.5-0.7-1-1.5-1.5-2.2c0.2-0.1,0.3-0.2,0.5-0.3c1,0.4,1.5,1.1,1.5,2.3
		C242.8,178.4,242.7,178.5,242.5,178.6z"/>
	<path class="st2" d="M144.4,278.8c-0.9-0.2-1.8,0-2.7-0.4c-1.3-0.6-1.9-1.6-1.9-2.9c-0.1-1.2,0-2.4,0-3.6c0.1-1.9,0-3.9,0.1-5.8
		c0-0.9,0-1.8,0.1-2.7c0.1-2.3,0.1-4.6,0.2-6.9c0-0.6,0-1.2,0.1-1.8c0.2-2.1,0.2-4.1,0.3-6.2c0.1-1.3,0.3-2.5,0.9-3.7
		c0.8-1.6,2.1-2.7,3.7-3.6c0.3-0.2,0.6-0.3,0.9-0.4c0.5-0.1,0.6-0.4,0.6-0.8c-0.1-2.2-0.1-4.3-0.1-6.5c0-2,0-3.9,0.2-5.9
		c0.2-1.5,0.4-3,0.8-4.5c0.3-1.2,0.7-2.4,1.5-3.3c1-1.2,2.3-2.1,3.9-2.6c2.7-0.8,5.5-1.1,8.3-1.4c1.6-0.1,3.2-0.1,4.7,0.1
		c2.2,0.3,4,1.2,5.6,2.8c1.7,1.8,2.4,3.9,2.9,6.2c0.4,1.7,0.6,3.4,0.7,5.1c0.1,0.8,0.1,1.6,0.1,2.5c-0.1,2.1-0.1,4.2-0.2,6.3
		c0,0.2,0.1,0.3,0.3,0.4c1.9,0.7,3.5,1.8,4.8,3.4c0.6,0.7,0.9,1.5,1.2,2.4c0.5,1.7,0.6,3.5,0.7,5.3c0.1,1.6,0.2,3.2,0.3,4.8
		c0,1,0,1.9,0,2.9c0,0.8,0,1.6,0.1,2.5c0,1.1,0.1,2.2,0.1,3.4c0,1.3,0.1,2.6,0.1,3.8c0,0.9,0,1.8,0,2.7c0,1.7,0,3.4,0,5.2
		c0,1.4-1,2.8-2.6,2.8c-1.6,0-3.2,0.2-4.8,0.2c-1.1,0-2.3,0-3.4,0.1c-1.2,0-2.4,0.1-3.6,0.1c-1.1,0-2.1,0.1-3.2,0.1
		c-1.4,0.1-2.7,0.1-4.1,0.2c-0.8,0-1.6,0-2.5,0c-1.7,0-3.5,0-5.2,0c-0.8,0-1.7-0.1-2.5-0.1c-1.1-0.1-2.3-0.1-3.4-0.1
		C146.2,278.9,145.3,278.8,144.4,278.8z M153.6,228.9c-0.2,1.5-0.1,3,0,4.5c0,1,0,2,0.1,2.9c0.1,0.8,0.1,1.6,0.1,2.4
		c0,0.2,0,0.5,0.4,0.5c2.1-0.2,4.2-0.4,6.3-0.6c1.3-0.1,2.7-0.2,4-0.3c1.1-0.1,2.3,0,3.4-0.1c0.2,0,0.3-0.1,0.3-0.3
		c0-1.8-0.1-3.6-0.1-5.4c0-1.6,0.1-3.2,0-4.8c0-0.7-0.1-1.4-0.4-2.1c-0.9-1.9-2.4-2.8-4.4-3c-1.1-0.2-2.3,0-3.4,0
		c-1.1,0-2.2,0.1-3.2,0.6c-1,0.5-1.9,1-2.4,2.1C153.8,226.3,153.7,227.6,153.6,228.9z M161.9,248.1c-1.2-0.2-2.2,0.2-3,1.2
		c-0.7,0.8-1.1,1.8-1.2,2.8c-0.2,1-0.1,2-0.1,3c0,0.5-0.1,1.1,0,1.6c0.1,1.3,0,2.6,0.1,3.9c0,1.1-0.1,2.1,0,3.2c0.1,1.6,0,3.3,0,4.9
		c0,0.5,0.2,0.8,0.7,0.9c1.1,0.1,2.3-0.1,3.4,0c1.3,0,2.5,0,3.8,0c0.4,0,0.9-0.4,0.8-0.7c-0.2-0.8-0.2-1.6-0.1-2.4
		c0.1-0.7,0-1.4,0-2.2c0-1.7-0.1-3.4,0-5c0-0.5,0-0.9,0-1.4c0-0.9-0.1-1.8-0.1-2.8c0-0.9,0-1.9-0.1-2.8
		C165.7,249.8,163.9,248.1,161.9,248.1z"/>
</g>
</svg>
