<?xml version="1.0" encoding="UTF-8"?><svg id="Layer_1" xmlns="http://www.w3.org/2000/svg" xmlns:xlink="http://www.w3.org/1999/xlink" viewBox="0 0 529.74 529.74"><defs><style>.cls-1{fill:none;}.cls-2{fill:#d73f28;}.cls-3{fill:#1a0a38;}.cls-4{fill:url(#skull);}</style><pattern id="skull" x="0" y="0" width="411.07" height="399.51" patternTransform="translate(-743.78 -1666.02)" patternUnits="userSpaceOnUse" viewBox="0 0 411.07 399.51"><rect class="cls-1" width="411.07" height="399.51"/><path class="cls-2" d="m-88.52,38.74c-3.44-1.97-6.76-4.24-9.83-6.74-10.35-8.44-19.85-17.69-26.82-29.25-3.81-6.31-6.49-13.09-7.48-20.38-1.98-14.56,1.5-28.14,7.9-41.13,4.44-9.01,10.37-17.07,16.1-25.26.87-1.25,1.99-1.49,3.31-1.49,25.75-.1,44.53,11.4,56.66,34,.54,1.01,1.09,2.04,1.8,2.92,1.38,1.7,3.53,1.87,5.2.45,1.9-1.62,2.74-3.73,2.19-6.16-.31-1.36-.05-2.38.84-3.32,2.22-2.35,4.29-4.89,6.73-6.99,10.36-8.95,22.38-13.63,36.15-13.58,2.15,0,2.68-.59,1.91-2.31-4.58-10.23-11.1-18.94-20.05-25.78-1.28-.98-2.33-1.09-3.57,0-2.72,2.42-5.46,4.82-8.29,7.11-.53.43-1.52.29-2.3.42-.05-.73-.38-1.6-.1-2.16,1.57-3.14,3.22-6.24,4.97-9.28,1.53-2.67,1.54-2.94-1.15-4.25-7.07-3.45-14.44-6-22.15-7.61-1.88-.39-2.55.24-2.89,1.98-.88,4.5-1.84,8.99-2.89,13.46-.17.73-.92,1.33-1.41,1.98-.64-.58-1.65-1.04-1.87-1.75-1.39-4.51-2.65-9.05-3.84-13.62-.31-1.17-.69-1.91-1.97-2.18-8.17-1.69-16.4-2.61-24.75-1.77-2.75.28-2.79.35-2.6,3.1.36,5.23.71,10.47,1.06,15.7l-.69.25c-2.06-4.48-4.1-8.98-6.22-13.44-.34-.72-.99-1.78-1.56-1.82-4.94-.36-9.73.5-14.53,2.03.83,2.05,1.62,3.84,2.26,5.69.17.49-.12,1.13-.19,1.7-.42-.35-1.03-.62-1.23-1.07-.86-1.89-1.59-3.84-2.49-6.05-3.36,1.52-6.67,3.01-9.98,4.51-1.29.59-1.39,1.46-.72,2.63,1.21,2.11,2.44,4.21,3.47,6.41.33.71.07,1.69.08,2.55-.86-.13-1.88,0-2.54-.43-2.49-1.62-4.9-3.37-7.25-5.18-1.27-.98-2.3-.93-3.65-.11-7.88,4.8-15.12,10.38-21.58,16.97-2.43,2.48-2.39,2.44.27,4.55.67.53,1.47,1.47,1.42,2.16-.04.55-1.22,1.21-2.01,1.47-3.45,1.13-6.1,3.16-7.61,6.5-.93,2.06-.62,2.56,1.57,3.08,3.23.76,6.3,1.86,8.9,4.19-.2.37-.34.67-.52.94-.45.67-.89,1.36-1.4,1.99-7.13,8.8-11.61,18.77-13.01,30.03-1.67,13.43,1.72,25.28,11.56,34.9,2.76,2.7,6.02,4.07,10.1,3.37,3.36-.58,6.83-.91,10.23-.82,3.33.09,4.52,2.56,3.04,5.55-.54,1.09-1.25,2.09-1.8,3.17-1.05,2.06-.16,3.98,2.11,4.41.97.18,2,.12,3,.09,1.48-.05,2.96-.29,4.43-.23,3.09.13,4.62,2.41,3.15,5.07-1.34,2.43-3.03,4.75-4.92,6.78-4.1,4.4-5.02,8.14-.7,12.2,1.91,1.8,3.86,3.61,6.03,5.06,4.32,2.87,8.67,5.73,13.25,8.15,5.88,3.11,11.98,5.82,18.03,8.62,1.94.9,4.06.71,5.33-1.06,2.37-3.31,4.92-6.59,5.42-10.89.19-1.66.61-3.29.92-4.94-3.63-1.69-7.36-3.14-10.79-5.11Zm19.93-158.12c-.85,7.42-.77,14.83.36,22.22.08.5-.4,1.08-.62,1.62-.31-.44-.83-.85-.91-1.33-1.25-7.58-1.35-15.19-.4-22.81.05-.41.35-.83.63-1.17.1-.12.48,0,.84.02.04.55.14,1.01.09,1.45ZM-10.08-82.8c-5.92,2.21-11.34,5.3-16.35,9.15-.5.38-1.27.41-1.92.61.31-.63.45-1.48.94-1.87,5.07-3.97,10.64-7.11,16.68-9.38.44-.16.9-.35,1.35-.36.25,0,.57.28.73.53.1.17-.03.49-.06.74-.51.22-.93.43-1.37.59Zm-34.5-18.23c-1.29-.87-2.08-3.69-1-4.22,1.37-.67,3.22-1.05,4.65-.71,1.51.36,1.76,2.66.81,3.96-1.11,1.54-3,1.94-4.47.97Zm-84.69,37.06c-1.34-.87-1.44-2.48-.27-4.27.86-1.3,2.76-1.67,4.1-.79,1.37.9,1.69,2.65.75,4.05-1.05,1.57-3.03,2-4.58,1Zm-12.69-33.83c-.23-.33-.05-.95-.06-1.44.48.23,1.13.32,1.41.7,2.88,3.73,5.72,7.5,8.51,11.3.29.4.25,1.05.36,1.58-.47-.02-.94-.04-1.66-.07-2.89-4.05-5.76-8.04-8.57-12.07Zm25.2,3.71c-.94-.15-1.04-3.41-.11-4.41.76-.83,1.61-1.98,3.02-.94,1.29.94,1.81,3.15,1.1,4.87-1.34.19-2.73.68-4.01.47ZM-4.97-82.13c-1.07-.32-1.17-2.58-.05-3.75.54-.56,1.79-.96,2.49-.74,1.18.38,1.2,2.15-.13,4.12-.45.09-1.49.61-2.31.37Zm-27.68-.45c1.52-1.8,3.08-3.58,4.68-5.31.26-.28.79-.31,1.19-.45.06.41.33,1,.15,1.21-1.75,2.04-3.57,4.03-5.39,6.01-.14.15-.48.12-1.34.29.34-.87.41-1.4.71-1.75Zm-117.51-7.52c-.24-.31-.08-.93-.11-1.41.45.16,1.04.19,1.33.5,1.39,1.46,2.73,2.97,4.01,4.53.26.32.19.92.28,1.39-.48-.01-.96-.02-1.43-.03-1.46-1.75-2.82-3.33-4.09-4.98Zm74.76-18.18c-.25-.06-.59-.41-.62-.66-.24-2.01-.43-4.02-.58-6.04-.02-.26.27-.67.52-.77.22-.09.81.13.83.28.33,2.25.6,4.51.89,6.84-.47.18-.79.42-1.04.36Zm-39.86.14c-.89-1.49-1.71-3.03-2.49-4.58-.09-.19.11-.69.32-.81.22-.13.8-.09.89.06.92,1.56,1.78,3.14,2.61,4.74.1.19-.05.5-.11,1.02-.51-.17-1.07-.18-1.22-.44Zm-14.27,51.14c-.3-.94-.41-1.99-.33-2.98.01-.18,1.7-.5,1.76-.36.42.93.61,1.95,1.01,3.45-1.24-.04-2.37.1-2.43-.11Zm82.21-37.01c.18-.31.99-.25,1.51-.36.02.73.19,1.51,0,2.18-.08.27-.96.3-1.9.55.15-1.07.08-1.84.39-2.37Zm-87.76,41.07c-.37-.28-.59-1.25-.38-1.65.19-.35,1.18-.58,1.62-.39.39.17.5.98.89,1.86-1,.11-1.78.44-2.13.18Zm21.41-35.76c-.35.35-1.09.32-1.66.46.01-.6-.18-1.32.09-1.77.24-.39.98-.48,2.08-.95-.24,1.18-.18,1.92-.51,2.26Zm65.36-8.66c-.31-.42-.44-1.18-.27-1.66.1-.26,1.08-.47,1.46-.28.34.17.39.91.68,1.69-.88.13-1.72.45-1.87.25Zm-63.63,5.47c-.34-.29-.32-.99-.46-1.5.58-.07,1.24-.35,1.7-.16.33.14.38.92.71,1.83-.96-.06-1.64.1-1.95-.17Zm-19.24,31.12c-.35.38-1.09.41-1.66.59-.12-.53-.51-1.21-.31-1.55.26-.43.98-.58,1.91-1.06.05,1.01.31,1.75.06,2.02Z"/><path class="cls-2" d="m-21.05-9.22c.98.63,1.97,1.25,2.94,1.91.71.49,1.43.97,2.16,1.43,1.5.94,3.03,1.84,4.56,2.75.72.43,1.45.86,2.19,1.27,1.22.68,2.45,1.34,3.67,2.01.94.52,1.87,1.06,2.81,1.58C-1.67,2.33-.6,2.92.46,3.53c1.01.58,2.01,1.18,3.03,1.75,1.44.8,2.91,1.54,4.34,2.36,1.44.82,3.09.15,3.79-1.06.88-1.52,1.81-3.01,2.72-4.51.48-.78.95-1.57,1.4-2.36.65-1.13,1.3-2.27,1.94-3.41.56-1,1.11-2,1.67-3,.41-.73.83-1.46,1.26-2.19.51-.86,1.06-1.69,1.53-2.56.78-1.45,1.52-2.92,2.26-4.39.82-1.61,1.68-3.21,2.13-4.98.23-.9.33-1.83.21-2.73-.28-2.03-1.07-3.87-2.37-5.48-.14-.17-.13-.31-.02-.49,1.17-1.81,2.32-3.63,3.51-5.43.47-.71.85-1.46,1.23-2.2.81-1.56,1.51-3.17,2.08-4.84.78-2.27,1.33-4.54.78-6.98-.5-2.22-1.65-4.01-3.38-5.43-1.25-1.03-2.64-1.85-4.1-2.58-2.57-1.28-5.16-2.51-7.97-3.2-1.6-.39-3.18-.33-4.72.21-1.2.42-2.14,1.25-3.06,2.14-1.13,1.09-2.15,2.26-3.1,3.5-1.21,1.59-2.23,3.3-3.25,5.02-1.12,1.9-2.24,3.8-3.3,5.73-.2.37-.43.63-.93.45-.3-.11-.64-.1-.96-.11-1.81-.07-3.56.18-5.12,1.17-1.12.71-1.99,1.63-2.74,2.74-1.18,1.74-2.31,3.53-3.57,5.22-.37.5-.69,1.05-1.04,1.57-1.31,1.96-2.54,3.96-3.84,5.93-.51.77-.99,1.55-1.49,2.31-1.09,1.66-2.07,3.4-3.15,5.07-.66,1.03-1.36,2.03-1.94,3.11-.64,1.19-.67,2.38.14,3.55.57.82,1.49,1.18,2.15,1.79.82.51,1.55,1.06,2.32,1.56ZM13.73-52.32c1.01-.66,2.08-.67,3.21-.57,1.15.1,2.15.6,3.1,1.17.98.59,2.03,1.07,2.94,1.8,1.6,1.29,2.54,2.86,2.28,4.99-.09.75-.42,1.42-.78,2.04-.83,1.43-1.74,2.8-2.6,4.21-.96,1.58-1.89,3.17-2.82,4.77-.11.19-.19.23-.37.12-1-.59-2-1.2-3.02-1.76-1.19-.65-2.4-1.28-3.62-1.88-1.94-.96-3.9-1.89-5.85-2.83-.34-.16-.17-.41-.08-.6.35-.73.77-1.42,1.13-2.14.45-.9.97-1.75,1.46-2.63.75-1.33,1.43-2.7,2.4-3.87.73-1.1,1.51-2.11,2.62-2.84Zm-4.1,29.76c-.38.89-.91,1.69-1.41,2.51-.48.81-.9,1.65-1.39,2.46-.25.41-.49.83-.76,1.23-.95,1.43-1.73,2.96-2.65,4.4-.39.62-.74,1.27-1.17,1.86-.48.66-.93,1.34-1.18,2.14-.11.34-.68.45-1.08.23-1.13-.61-2.22-1.27-3.3-1.96-.97-.62-2.05-1.08-2.99-1.75-.44-.32-.48-.67-.2-1.14.85-1.44,1.79-2.83,2.58-4.3.51-.96,1.17-1.84,1.7-2.78.65-1.16,1.43-2.25,1.99-3.46.22-.48.57-.91.85-1.36.54-.87,1.01-1.78,1.68-2.56.7-.82,1.53-1.45,2.56-1.81,1.21-.43,2.27-.21,3.25.58,1.76,1.1,2.47,3.5,1.5,5.74Z"/><path class="cls-2" d="m117.02,38.74c-3.44-1.97-6.76-4.24-9.83-6.74-10.35-8.44-19.85-17.69-26.82-29.25-3.81-6.31-6.49-13.09-7.48-20.38-1.98-14.56,1.5-28.14,7.9-41.13,4.44-9.01,10.37-17.07,16.1-25.26.87-1.25,1.99-1.49,3.31-1.49,25.75-.1,44.53,11.4,56.66,34,.54,1.01,1.09,2.04,1.8,2.92,1.38,1.7,3.53,1.87,5.2.45,1.9-1.62,2.74-3.73,2.19-6.16-.31-1.36-.05-2.38.84-3.32,2.22-2.35,4.29-4.89,6.73-6.99,10.36-8.95,22.38-13.63,36.15-13.58,2.15,0,2.68-.59,1.91-2.31-4.58-10.23-11.1-18.94-20.05-25.78-1.28-.98-2.33-1.09-3.57,0-2.72,2.42-5.46,4.82-8.29,7.11-.53.43-1.52.29-2.3.42-.05-.73-.38-1.6-.1-2.16,1.57-3.14,3.22-6.24,4.97-9.28,1.53-2.67,1.54-2.94-1.15-4.25-7.07-3.45-14.44-6-22.15-7.61-1.88-.39-2.55.24-2.89,1.98-.88,4.5-1.84,8.99-2.89,13.46-.17.73-.92,1.33-1.41,1.98-.64-.58-1.65-1.04-1.87-1.75-1.39-4.51-2.65-9.05-3.84-13.62-.31-1.17-.69-1.91-1.97-2.18-8.17-1.69-16.4-2.61-24.75-1.77-2.75.28-2.79.35-2.6,3.1.36,5.23.71,10.47,1.06,15.7l-.69.25c-2.06-4.48-4.1-8.98-6.22-13.44-.34-.72-.99-1.78-1.56-1.82-4.94-.36-9.73.5-14.53,2.03.83,2.05,1.62,3.84,2.26,5.69.17.49-.12,1.13-.19,1.7-.42-.35-1.03-.62-1.23-1.07-.86-1.89-1.59-3.84-2.49-6.05-3.36,1.52-6.67,3.01-9.98,4.51-1.29.59-1.39,1.46-.72,2.63,1.21,2.11,2.44,4.21,3.47,6.41.33.71.07,1.69.08,2.55-.86-.13-1.88,0-2.54-.43-2.49-1.62-4.9-3.37-7.25-5.18-1.27-.98-2.3-.93-3.65-.11-7.88,4.8-15.12,10.38-21.58,16.97-2.43,2.48-2.39,2.44.27,4.55.67.53,1.47,1.47,1.42,2.16-.04.55-1.22,1.21-2.01,1.47-3.45,1.13-6.1,3.16-7.61,6.5-.93,2.06-.62,2.56,1.57,3.08,3.23.76,6.3,1.86,8.9,4.19-.2.37-.34.67-.52.94-.45.67-.89,1.36-1.4,1.99-7.13,8.8-11.61,18.77-13.01,30.03-1.67,13.43,1.72,25.28,11.56,34.9,2.76,2.7,6.02,4.07,10.1,3.37,3.36-.58,6.83-.91,10.23-.82,3.33.09,4.52,2.56,3.04,5.55-.54,1.09-1.25,2.09-1.8,3.17-1.05,2.06-.16,3.98,2.11,4.41.97.18,2,.12,3,.09,1.48-.05,2.96-.29,4.43-.23,3.09.13,4.62,2.41,3.15,5.07-1.34,2.43-3.03,4.75-4.92,6.78-4.1,4.4-5.02,8.14-.7,12.2,1.91,1.8,3.86,3.61,6.03,5.06,4.32,2.87,8.67,5.73,13.25,8.15,5.88,3.11,11.98,5.82,18.03,8.62,1.94.9,4.06.71,5.33-1.06,2.37-3.31,4.92-6.59,5.42-10.89.19-1.66.61-3.29.92-4.94-3.63-1.69-7.36-3.14-10.79-5.11Zm19.93-158.12c-.85,7.42-.77,14.83.36,22.22.08.5-.4,1.08-.62,1.62-.31-.44-.83-.85-.91-1.33-1.25-7.58-1.35-15.19-.4-22.81.05-.41.35-.83.63-1.17.1-.12.48,0,.84.02.04.55.14,1.01.09,1.45Zm58.51,36.57c-5.92,2.21-11.34,5.3-16.35,9.15-.5.38-1.27.41-1.92.61.31-.63.45-1.48.94-1.87,5.07-3.97,10.64-7.11,16.68-9.38.44-.16.9-.35,1.35-.36.25,0,.57.28.73.53.1.17-.03.49-.06.74-.51.22-.93.43-1.37.59Zm-34.5-18.23c-1.29-.87-2.08-3.69-1-4.22,1.37-.67,3.22-1.05,4.65-.71,1.51.36,1.76,2.66.81,3.96-1.11,1.54-3,1.94-4.47.97Zm-84.69,37.06c-1.34-.87-1.44-2.48-.27-4.27.86-1.3,2.76-1.67,4.1-.79,1.37.9,1.69,2.65.75,4.05-1.05,1.57-3.03,2-4.58,1Zm-12.69-33.83c-.23-.33-.05-.95-.06-1.44.48.23,1.13.32,1.41.7,2.88,3.73,5.72,7.5,8.51,11.3.29.4.25,1.05.36,1.58-.47-.02-.94-.04-1.66-.07-2.89-4.05-5.76-8.04-8.57-12.07Zm25.2,3.71c-.94-.15-1.04-3.41-.11-4.41.76-.83,1.61-1.98,3.02-.94,1.29.94,1.81,3.15,1.1,4.87-1.34.19-2.73.68-4.01.47Zm111.78,11.96c-1.07-.32-1.17-2.58-.05-3.75.54-.56,1.79-.96,2.49-.74,1.18.38,1.2,2.15-.13,4.12-.45.09-1.49.61-2.31.37Zm-27.68-.45c1.52-1.8,3.08-3.58,4.68-5.31.26-.28.79-.31,1.19-.45.06.41.33,1,.15,1.21-1.75,2.04-3.57,4.03-5.39,6.01-.14.15-.48.12-1.34.29.34-.87.41-1.4.71-1.75Zm-117.51-7.52c-.24-.31-.08-.93-.11-1.41.45.16,1.04.19,1.33.5,1.39,1.46,2.73,2.97,4.01,4.53.26.32.19.92.28,1.39-.48-.01-.96-.02-1.43-.03-1.46-1.75-2.82-3.33-4.09-4.98Zm74.76-18.18c-.25-.06-.59-.41-.62-.66-.24-2.01-.43-4.02-.58-6.04-.02-.26.27-.67.52-.77.22-.09.81.13.83.28.33,2.25.6,4.51.89,6.84-.47.18-.79.42-1.04.36Zm-39.86.14c-.89-1.49-1.71-3.03-2.49-4.58-.09-.19.11-.69.32-.81.22-.13.8-.09.89.06.92,1.56,1.78,3.14,2.61,4.74.1.19-.05.5-.11,1.02-.51-.17-1.07-.18-1.22-.44Zm-14.27,51.14c-.3-.94-.41-1.99-.33-2.98.01-.18,1.7-.5,1.76-.36.42.93.61,1.95,1.01,3.45-1.24-.04-2.37.1-2.43-.11Zm82.21-37.01c.18-.31.99-.25,1.51-.36.02.73.19,1.51,0,2.18-.08.27-.96.3-1.9.55.15-1.07.08-1.84.39-2.37Zm-87.76,41.07c-.37-.28-.59-1.25-.38-1.65.19-.35,1.18-.58,1.62-.39.39.17.5.98.89,1.86-1,.11-1.78.44-2.13.18Zm21.41-35.76c-.35.35-1.09.32-1.66.46.01-.6-.18-1.32.09-1.77.24-.39.98-.48,2.08-.95-.24,1.18-.18,1.92-.51,2.26Zm65.36-8.66c-.31-.42-.44-1.18-.27-1.66.1-.26,1.08-.47,1.46-.28.34.17.39.91.68,1.69-.88.13-1.72.45-1.87.25Zm-63.63,5.47c-.34-.29-.32-.99-.46-1.5.58-.07,1.24-.35,1.7-.16.33.14.38.92.71,1.83-.96-.06-1.64.1-1.95-.17Zm-19.24,31.12c-.35.38-1.09.41-1.66.59-.12-.53-.51-1.21-.31-1.55.26-.43.98-.58,1.91-1.06.05,1.01.31,1.75.06,2.02Z"/><path class="cls-3" d="m128.71-16.6c1.85-11.31-4.26-18.93-15.51-19.23-4.65-.12-9.17.81-13.41,2.65-10.17,4.41-13.23,13.51-7.45,23.04,2.23,3.69,5.26,6.98,8.35,10.03,4.06,4.01,9.06,4.4,14.27,2.34,3.76-1.49,6.54-4.2,8.97-7.41,2.32-3.46,4.09-7.21,4.78-11.42Z"/><path class="cls-3" d="m164.25,9.88c1.33-8.62-3.7-14.77-12.42-14.95-5.45-.11-10.58,1.31-15.2,4.23-5.87,3.7-7.79,10.5-4.88,16.82,1.78,3.86,4.34,7.11,7.54,9.9,3.24,2.82,6.84,3.61,10.92,2.37,4.2-1.28,7.19-4.13,9.62-7.39,2.33-3.47,3.82-7.05,4.43-10.98Z"/><path class="cls-3" d="m109.31,22.98c1.18,1.66,3.22,2.1,6.06,1.3,1.8-.51,2.37.03,2.56,1.93.13,1.27.29,2.8,1.05,3.7,2.51,2.96,6.75,1.7,7.92-2.34.77-2.65,1.39-5.38,1.72-8.11.39-3.19.66-6.44.47-9.63-.15-2.52-1.86-3.48-4.33-2.91-1.43.33-2.8.96-4.13,1.62-4,1.98-7.88,4.16-10.23,7.01-2.33,3.23-2.53,5.44-1.11,7.44Zm17.54-5.27c0,.12-.97.19-1.49.28-.18-1.2-.43-2.4-.47-3.61,0-.17.96-.38,1.91-.74.04,1.63.12,2.85.04,4.07Zm-2.29,2.66c.26-.29,1.18-.4,1.48-.16.32.25.49,1.13.29,1.48-.19.34-.95.35-1.83.62,0-.92-.2-1.63.06-1.94Z"/><path class="cls-2" d="m143.97,44.87c4.02-1.25,8.04-2.51,12.1-3.77-1.64,2.94-4,5.56-6.69,7.91.33-.41,1.01-.92.92-1.21-.27-.9-.73-1.78-1.32-2.5-.17-.2-1.5.19-1.5.27.05.87.1,1.8.47,2.56.21.44,1.01.59,1.54.87-2.47,2.03-5.13,3.16-8.34,1.83-2.48-1.02-3.23-3.38-4.56-5.53,2.67-.16,5.06-.3,7.46-.44-.77.63-1.5,1.37-.55,2.28.3.29,1.31.22,1.72-.08.97-.71.42-1.65-1.24-2.19Z"/><path class="cls-2" d="m161.16,24.37c-.99,5.28-3.54,9.82-6.81,14.01l-.71-.35c1.25-2.25,2.63-4.44,3.73-6.76,1.12-2.36,1.97-4.85,2.93-7.28.29.12.58.25.87.37Z"/><path class="cls-3" d="m-7.68,47.94c.72.48,1.45.95,2.17,1.45.52.37,1.05.73,1.59,1.08,1.11.71,2.23,1.4,3.36,2.09.53.33,1.07.65,1.61.96.9.52,1.81,1.02,2.71,1.53.69.4,1.38.8,2.07,1.2.78.45,1.57.9,2.35,1.36.75.44,1.48.9,2.23,1.32,1.06.61,2.15,1.17,3.2,1.79,1.06.62,2.29.14,2.82-.75.67-1.12,1.37-2.22,2.07-3.32.36-.57.72-1.15,1.06-1.74.5-.83.98-1.67,1.47-2.51.43-.74.84-1.48,1.27-2.21.31-.54.63-1.08.96-1.61.38-.63.8-1.24,1.16-1.89.59-1.07,1.15-2.16,1.72-3.24.62-1.19,1.28-2.37,1.63-3.68.18-.67.27-1.36.18-2.02-.19-1.51-.76-2.89-1.71-4.09-.1-.13-.09-.23,0-.36.89-1.33,1.75-2.68,2.66-4,.36-.52.64-1.08.94-1.62.62-1.15,1.15-2.34,1.59-3.57.6-1.68,1.03-3.36.65-5.17-.35-1.65-1.18-2.99-2.46-4.06-.92-.77-1.94-1.4-3.02-1.95-1.9-.98-3.81-1.91-5.88-2.45-1.18-.3-2.36-.28-3.51.11-.9.3-1.6.91-2.29,1.56-.85.8-1.62,1.66-2.33,2.57-.91,1.17-1.69,2.43-2.46,3.7-.85,1.4-1.7,2.8-2.5,4.22-.15.27-.32.46-.7.32-.22-.08-.47-.08-.71-.09-1.34-.07-2.64.1-3.82.82-.83.51-1.49,1.19-2.06,2.01-.89,1.28-1.75,2.6-2.7,3.84-.28.37-.52.78-.78,1.16-.99,1.44-1.92,2.92-2.9,4.36-.38.56-.75,1.14-1.13,1.7-.83,1.22-1.57,2.5-2.39,3.73-.5.76-1.03,1.5-1.47,2.29-.49.88-.52,1.76.07,2.64.41.62,1.1.89,1.58,1.35.6.38,1.14.8,1.71,1.18Zm26.22-31.67c.76-.48,1.55-.48,2.39-.4.85.08,1.59.47,2.29.9.72.45,1.5.81,2.16,1.36,1.18.98,1.86,2.15,1.65,3.73-.07.56-.33,1.05-.6,1.51-.63,1.05-1.32,2.06-1.97,3.1-.72,1.16-1.43,2.34-2.13,3.51-.08.14-.14.17-.28.08-.74-.45-1.47-.91-2.22-1.33-.88-.49-1.77-.97-2.67-1.43-1.43-.73-2.88-1.44-4.32-2.15-.25-.12-.12-.31-.05-.44.27-.54.58-1.04.86-1.58.34-.66.74-1.29,1.11-1.94.57-.98,1.09-1.99,1.82-2.85.55-.81,1.14-1.55,1.98-2.08Zm-3.32,22.05c-.29.65-.69,1.24-1.07,1.85-.37.59-.68,1.22-1.05,1.81-.19.3-.37.61-.57.91-.72,1.05-1.31,2.18-2.01,3.24-.3.46-.56.93-.89,1.37-.36.49-.7.99-.89,1.57-.08.25-.51.32-.81.16-.83-.46-1.64-.97-2.43-1.49-.72-.47-1.51-.82-2.21-1.33-.33-.24-.35-.5-.14-.85.65-1.06,1.35-2.08,1.96-3.17.39-.71.88-1.35,1.29-2.05.5-.85,1.08-1.65,1.51-2.55.17-.36.43-.67.64-1,.41-.64.77-1.31,1.27-1.89.53-.6,1.15-1.06,1.92-1.32.9-.31,1.69-.14,2.41.46,1.3.84,1.8,2.62,1.06,4.27Z"/><path class="cls-2" d="m184.49-9.22c.98.63,1.97,1.25,2.94,1.91.71.49,1.43.97,2.16,1.43,1.5.94,3.03,1.84,4.56,2.75.72.43,1.45.86,2.19,1.27,1.22.68,2.45,1.34,3.67,2.01.94.52,1.87,1.06,2.81,1.58,1.06.6,2.13,1.19,3.18,1.79,1.01.58,2.01,1.18,3.03,1.75,1.44.8,2.91,1.54,4.34,2.36,1.44.82,3.09.15,3.79-1.06.88-1.52,1.81-3.01,2.72-4.51.48-.78.95-1.57,1.4-2.36.65-1.13,1.3-2.27,1.94-3.41.56-1,1.11-2,1.67-3,.41-.73.83-1.46,1.26-2.19.51-.86,1.06-1.69,1.53-2.56.78-1.45,1.52-2.92,2.26-4.39.82-1.61,1.68-3.21,2.13-4.98.23-.9.33-1.83.21-2.73-.28-2.03-1.07-3.87-2.37-5.48-.14-.17-.13-.31-.02-.49,1.17-1.81,2.32-3.63,3.51-5.43.47-.71.85-1.46,1.23-2.2.81-1.56,1.51-3.17,2.08-4.84.78-2.27,1.33-4.54.78-6.98-.5-2.22-1.65-4.01-3.38-5.43-1.25-1.03-2.64-1.85-4.1-2.58-2.57-1.28-5.16-2.51-7.97-3.2-1.6-.39-3.18-.33-4.72.21-1.2.42-2.14,1.25-3.06,2.14-1.13,1.09-2.15,2.26-3.1,3.5-1.21,1.59-2.23,3.3-3.25,5.02-1.12,1.9-2.24,3.8-3.3,5.73-.2.37-.43.63-.93.45-.3-.11-.64-.1-.96-.11-1.81-.07-3.56.18-5.12,1.17-1.12.71-1.99,1.63-2.74,2.74-1.18,1.74-2.31,3.53-3.57,5.22-.37.5-.69,1.05-1.04,1.57-1.31,1.96-2.54,3.96-3.84,5.93-.51.77-.99,1.55-1.49,2.31-1.09,1.66-2.07,3.4-3.15,5.07-.66,1.03-1.36,2.03-1.94,3.11-.64,1.19-.67,2.38.14,3.55.57.82,1.49,1.18,2.15,1.79.82.51,1.55,1.06,2.32,1.56Zm34.78-43.1c1.01-.66,2.08-.67,3.21-.57,1.15.1,2.15.6,3.1,1.17.98.59,2.03,1.07,2.94,1.8,1.6,1.29,2.54,2.86,2.28,4.99-.09.75-.42,1.42-.78,2.04-.83,1.43-1.74,2.8-2.6,4.21-.96,1.58-1.89,3.17-2.82,4.77-.11.19-.19.23-.37.12-1-.59-2-1.2-3.02-1.76-1.19-.65-2.4-1.28-3.62-1.88-1.94-.96-3.9-1.89-5.85-2.83-.34-.16-.17-.41-.08-.6.35-.73.77-1.42,1.13-2.14.45-.9.97-1.75,1.46-2.63.75-1.33,1.43-2.7,2.4-3.87.73-1.1,1.51-2.11,2.62-2.84Zm-4.1,29.76c-.38.89-.91,1.69-1.41,2.51-.48.81-.9,1.65-1.39,2.46-.25.41-.49.83-.76,1.23-.95,1.43-1.73,2.96-2.65,4.4-.39.62-.74,1.27-1.17,1.86-.48.66-.93,1.34-1.18,2.14-.11.34-.68.45-1.08.23-1.13-.61-2.22-1.27-3.3-1.96-.97-.62-2.05-1.08-2.99-1.75-.44-.32-.48-.67-.2-1.14.85-1.44,1.79-2.83,2.58-4.3.51-.96,1.17-1.84,1.7-2.78.65-1.16,1.43-2.25,1.99-3.46.22-.48.57-.91.85-1.36.54-.87,1.01-1.78,1.68-2.56.7-.82,1.53-1.45,2.56-1.81,1.21-.43,2.27-.21,3.25.58,1.76,1.1,2.47,3.5,1.5,5.74Z"/><path class="cls-2" d="m322.55,38.74c-3.44-1.97-6.76-4.24-9.83-6.74-10.35-8.44-19.85-17.69-26.82-29.25-3.81-6.31-6.49-13.09-7.48-20.38-1.98-14.56,1.5-28.14,7.9-41.13,4.44-9.01,10.37-17.07,16.1-25.26.87-1.25,1.99-1.49,3.31-1.49,25.75-.1,44.53,11.4,56.66,34,.54,1.01,1.09,2.04,1.8,2.92,1.38,1.7,3.53,1.87,5.2.45,1.9-1.62,2.74-3.73,2.19-6.16-.31-1.36-.05-2.38.84-3.32,2.22-2.35,4.29-4.89,6.73-6.99,10.36-8.95,22.38-13.63,36.15-13.58,2.15,0,2.68-.59,1.91-2.31-4.58-10.23-11.1-18.94-20.05-25.78-1.28-.98-2.33-1.09-3.57,0-2.72,2.42-5.46,4.82-8.29,7.11-.53.43-1.52.29-2.3.42-.05-.73-.38-1.6-.1-2.16,1.57-3.14,3.22-6.24,4.97-9.28,1.53-2.67,1.54-2.94-1.15-4.25-7.07-3.45-14.44-6-22.15-7.61-1.88-.39-2.55.24-2.89,1.98-.88,4.5-1.84,8.99-2.89,13.46-.17.73-.92,1.33-1.41,1.98-.64-.58-1.65-1.04-1.87-1.75-1.39-4.51-2.65-9.05-3.84-13.62-.31-1.17-.69-1.91-1.97-2.18-8.17-1.69-16.4-2.61-24.75-1.77-2.75.28-2.79.35-2.6,3.1.36,5.23.71,10.47,1.06,15.7l-.69.25c-2.06-4.48-4.1-8.98-6.22-13.44-.34-.72-.99-1.78-1.56-1.82-4.94-.36-9.73.5-14.53,2.03.83,2.05,1.62,3.84,2.26,5.69.17.49-.12,1.13-.19,1.7-.42-.35-1.03-.62-1.23-1.07-.86-1.89-1.59-3.84-2.49-6.05-3.36,1.52-6.67,3.01-9.98,4.51-1.29.59-1.39,1.46-.72,2.63,1.21,2.11,2.44,4.21,3.47,6.41.33.71.07,1.69.08,2.55-.86-.13-1.88,0-2.54-.43-2.49-1.62-4.9-3.37-7.25-5.18-1.27-.98-2.3-.93-3.65-.11-7.88,4.8-15.12,10.38-21.58,16.97-2.43,2.48-2.39,2.44.27,4.55.67.53,1.47,1.47,1.42,2.16-.04.55-1.22,1.21-2.01,1.47-3.45,1.13-6.1,3.16-7.61,6.5-.93,2.06-.62,2.56,1.57,3.08,3.23.76,6.3,1.86,8.9,4.19-.2.37-.34.67-.52.94-.45.67-.89,1.36-1.4,1.99-7.13,8.8-11.61,18.77-13.01,30.03-1.67,13.43,1.72,25.28,11.56,34.9,2.76,2.7,6.02,4.07,10.1,3.37,3.36-.58,6.83-.91,10.23-.82,3.33.09,4.52,2.56,3.04,5.55-.54,1.09-1.25,2.09-1.8,3.17-1.05,2.06-.16,3.98,2.11,4.41.97.18,2,.12,3,.09,1.48-.05,2.96-.29,4.43-.23,3.09.13,4.62,2.41,3.15,5.07-1.34,2.43-3.03,4.75-4.92,6.78-4.1,4.4-5.02,8.14-.7,12.2,1.91,1.8,3.86,3.61,6.03,5.06,4.32,2.87,8.67,5.73,13.25,8.15,5.88,3.11,11.98,5.82,18.03,8.62,1.94.9,4.06.71,5.33-1.06,2.37-3.31,4.92-6.59,5.42-10.89.19-1.66.61-3.29.92-4.94-3.63-1.69-7.36-3.14-10.79-5.11Zm19.93-158.12c-.85,7.42-.77,14.83.36,22.22.08.5-.4,1.08-.62,1.62-.31-.44-.83-.85-.91-1.33-1.25-7.58-1.35-15.19-.4-22.81.05-.41.35-.83.63-1.17.1-.12.48,0,.84.02.04.55.14,1.01.09,1.45Zm58.51,36.57c-5.92,2.21-11.34,5.3-16.35,9.15-.5.38-1.27.41-1.92.61.31-.63.45-1.48.94-1.87,5.07-3.97,10.64-7.11,16.68-9.38.44-.16.9-.35,1.35-.36.25,0,.57.28.73.53.1.17-.03.49-.06.74-.51.22-.93.43-1.37.59Zm-34.5-18.23c-1.29-.87-2.08-3.69-1-4.22,1.37-.67,3.22-1.05,4.65-.71,1.51.36,1.76,2.66.81,3.96-1.11,1.54-3,1.94-4.47.97Zm-84.69,37.06c-1.34-.87-1.44-2.48-.27-4.27.86-1.3,2.76-1.67,4.1-.79,1.37.9,1.69,2.65.75,4.05-1.05,1.57-3.03,2-4.58,1Zm-12.69-33.83c-.23-.33-.05-.95-.06-1.44.48.23,1.13.32,1.41.7,2.88,3.73,5.72,7.5,8.51,11.3.29.4.25,1.05.36,1.58-.47-.02-.94-.04-1.66-.07-2.89-4.05-5.76-8.04-8.57-12.07Zm25.2,3.71c-.94-.15-1.04-3.41-.11-4.41.76-.83,1.61-1.98,3.02-.94,1.29.94,1.81,3.15,1.1,4.87-1.34.19-2.73.68-4.01.47Zm111.78,11.96c-1.07-.32-1.17-2.58-.05-3.75.54-.56,1.79-.96,2.49-.74,1.18.38,1.2,2.15-.13,4.12-.45.09-1.49.61-2.31.37Zm-27.68-.45c1.52-1.8,3.08-3.58,4.68-5.31.26-.28.79-.31,1.19-.45.06.41.33,1,.15,1.21-1.75,2.04-3.57,4.03-5.39,6.01-.14.15-.48.12-1.34.29.34-.87.41-1.4.71-1.75Zm-117.51-7.52c-.24-.31-.08-.93-.11-1.41.45.16,1.04.19,1.33.5,1.39,1.46,2.73,2.97,4.01,4.53.26.32.19.92.28,1.39-.48-.01-.96-.02-1.43-.03-1.46-1.75-2.82-3.33-4.09-4.98Zm74.76-18.18c-.25-.06-.59-.41-.62-.66-.24-2.01-.43-4.02-.58-6.04-.02-.26.27-.67.52-.77.22-.09.81.13.83.28.33,2.25.6,4.51.89,6.84-.47.18-.79.42-1.04.36Zm-39.86.14c-.89-1.49-1.71-3.03-2.49-4.58-.09-.19.11-.69.32-.81.22-.13.8-.09.89.06.92,1.56,1.78,3.14,2.61,4.74.1.19-.05.5-.11,1.02-.51-.17-1.07-.18-1.22-.44Zm-14.27,51.14c-.3-.94-.41-1.99-.33-2.98.01-.18,1.7-.5,1.76-.36.42.93.61,1.95,1.01,3.45-1.24-.04-2.37.1-2.43-.11Zm82.21-37.01c.18-.31.99-.25,1.51-.36.02.73.19,1.51,0,2.18-.08.27-.96.3-1.9.55.15-1.07.08-1.84.39-2.37Zm-87.76,41.07c-.37-.28-.59-1.25-.38-1.65.19-.35,1.18-.58,1.62-.39.39.17.5.98.89,1.86-1,.11-1.78.44-2.13.18Zm21.41-35.76c-.35.35-1.09.32-1.66.46.01-.6-.18-1.32.09-1.77.24-.39.98-.48,2.08-.95-.24,1.18-.18,1.92-.51,2.26Zm65.36-8.66c-.31-.42-.44-1.18-.27-1.66.1-.26,1.08-.47,1.46-.28.34.17.39.91.68,1.69-.88.13-1.72.45-1.87.25Zm-63.63,5.47c-.34-.29-.32-.99-.46-1.5.58-.07,1.24-.35,1.7-.16.33.14.38.92.71,1.83-.96-.06-1.64.1-1.95-.17Zm-19.24,31.12c-.35.38-1.09.41-1.66.59-.12-.53-.51-1.21-.31-1.55.26-.43.98-.58,1.91-1.06.05,1.01.31,1.75.06,2.02Z"/><path class="cls-3" d="m334.25-16.6c1.85-11.31-4.26-18.93-15.51-19.23-4.65-.12-9.17.81-13.41,2.65-10.17,4.41-13.23,13.51-7.45,23.04,2.23,3.69,5.26,6.98,8.35,10.03,4.06,4.01,9.06,4.4,14.27,2.34,3.76-1.49,6.54-4.2,8.97-7.41,2.32-3.46,4.09-7.21,4.78-11.42Z"/><path class="cls-3" d="m369.79,9.88c1.33-8.62-3.7-14.77-12.42-14.95-5.45-.11-10.58,1.31-15.2,4.23-5.87,3.7-7.79,10.5-4.88,16.82,1.78,3.86,4.34,7.11,7.54,9.9,3.24,2.82,6.84,3.61,10.92,2.37,4.2-1.28,7.19-4.13,9.62-7.39,2.33-3.47,3.82-7.05,4.43-10.98Z"/><path class="cls-3" d="m314.84,22.98c1.18,1.66,3.22,2.1,6.06,1.3,1.8-.51,2.37.03,2.56,1.93.13,1.27.29,2.8,1.05,3.7,2.51,2.96,6.75,1.7,7.92-2.34.77-2.65,1.39-5.38,1.72-8.11.39-3.19.66-6.44.47-9.63-.15-2.52-1.86-3.48-4.33-2.91-1.43.33-2.8.96-4.13,1.62-4,1.98-7.88,4.16-10.23,7.01-2.33,3.23-2.53,5.44-1.11,7.44Zm17.54-5.27c0,.12-.97.19-1.49.28-.18-1.2-.43-2.4-.47-3.61,0-.17.96-.38,1.91-.74.04,1.63.12,2.85.04,4.07Zm-2.29,2.66c.26-.29,1.18-.4,1.48-.16.32.25.49,1.13.29,1.48-.19.34-.95.35-1.83.62,0-.92-.2-1.63.06-1.94Z"/><path class="cls-2" d="m349.5,44.87c4.02-1.25,8.04-2.51,12.1-3.77-1.64,2.94-4,5.56-6.69,7.91.33-.41,1.01-.92.92-1.21-.27-.9-.73-1.78-1.32-2.5-.17-.2-1.5.19-1.5.27.05.87.1,1.8.47,2.56.21.44,1.01.59,1.54.87-2.47,2.03-5.13,3.16-8.34,1.83-2.48-1.02-3.23-3.38-4.56-5.53,2.67-.16,5.06-.3,7.46-.44-.77.63-1.5,1.37-.55,2.28.3.29,1.31.22,1.72-.08.97-.71.42-1.65-1.24-2.19Z"/><path class="cls-2" d="m366.69,24.37c-.99,5.28-3.54,9.82-6.81,14.01l-.71-.35c1.25-2.25,2.63-4.44,3.73-6.76,1.12-2.36,1.97-4.85,2.93-7.28.29.12.58.25.87.37Z"/><path class="cls-3" d="m197.86,47.94c.72.48,1.45.95,2.17,1.45.52.37,1.05.73,1.59,1.08,1.11.71,2.23,1.4,3.36,2.09.53.33,1.07.65,1.61.96.9.52,1.81,1.02,2.71,1.53.69.4,1.38.8,2.07,1.2.78.45,1.57.9,2.35,1.36.75.44,1.48.9,2.23,1.32,1.06.61,2.15,1.17,3.2,1.79,1.06.62,2.29.14,2.82-.75.67-1.12,1.37-2.22,2.07-3.32.36-.57.72-1.15,1.06-1.74.5-.83.98-1.67,1.47-2.51.43-.74.84-1.48,1.27-2.21.31-.54.63-1.08.96-1.61.38-.63.8-1.24,1.16-1.89.59-1.07,1.15-2.16,1.72-3.24.62-1.19,1.28-2.37,1.63-3.68.18-.67.27-1.36.18-2.02-.19-1.51-.76-2.89-1.71-4.09-.1-.13-.09-.23,0-.36.89-1.33,1.75-2.68,2.66-4,.36-.52.64-1.08.94-1.62.62-1.15,1.15-2.34,1.59-3.57.6-1.68,1.03-3.36.65-5.17-.35-1.65-1.18-2.99-2.46-4.06-.92-.77-1.94-1.4-3.02-1.95-1.9-.98-3.81-1.91-5.88-2.45-1.18-.3-2.36-.28-3.51.11-.9.3-1.6.91-2.29,1.56-.85.8-1.62,1.66-2.33,2.57-.91,1.17-1.69,2.43-2.46,3.7-.85,1.4-1.7,2.8-2.5,4.22-.15.27-.32.46-.7.32-.22-.08-.47-.08-.71-.09-1.34-.07-2.64.1-3.82.82-.83.51-1.49,1.19-2.06,2.01-.89,1.28-1.75,2.6-2.7,3.84-.28.37-.52.78-.78,1.16-.99,1.44-1.92,2.92-2.9,4.36-.38.56-.75,1.14-1.13,1.7-.83,1.22-1.57,2.5-2.39,3.73-.5.76-1.03,1.5-1.47,2.29-.49.88-.52,1.76.07,2.64.41.62,1.1.89,1.58,1.35.6.38,1.14.8,1.71,1.18Zm26.22-31.67c.76-.48,1.55-.48,2.39-.4.85.08,1.59.47,2.29.9.72.45,1.5.81,2.16,1.36,1.18.98,1.86,2.15,1.65,3.73-.07.56-.33,1.05-.6,1.51-.63,1.05-1.32,2.06-1.97,3.1-.72,1.16-1.43,2.34-2.13,3.51-.08.14-.14.17-.28.08-.74-.45-1.47-.91-2.22-1.33-.88-.49-1.77-.97-2.67-1.43-1.43-.73-2.88-1.44-4.32-2.15-.25-.12-.12-.31-.05-.44.27-.54.58-1.04.86-1.58.34-.66.74-1.29,1.11-1.94.57-.98,1.09-1.99,1.82-2.85.55-.81,1.14-1.55,1.98-2.08Zm-3.32,22.05c-.29.65-.69,1.24-1.07,1.85-.37.59-.68,1.22-1.05,1.81-.19.3-.37.61-.57.91-.72,1.05-1.31,2.18-2.01,3.24-.3.46-.56.93-.89,1.37-.36.49-.7.99-.89,1.57-.08.25-.51.32-.81.16-.83-.46-1.64-.97-2.43-1.49-.72-.47-1.51-.82-2.21-1.33-.33-.24-.35-.5-.14-.85.65-1.06,1.35-2.08,1.96-3.17.39-.71.88-1.35,1.29-2.05.5-.85,1.08-1.65,1.51-2.55.17-.36.43-.67.64-1,.41-.64.77-1.31,1.27-1.89.53-.6,1.15-1.06,1.92-1.32.9-.31,1.69-.14,2.41.46,1.3.84,1.8,2.62,1.06,4.27Z"/><path class="cls-2" d="m390.02-9.22c.98.63,1.97,1.25,2.94,1.91.71.49,1.43.97,2.16,1.43,1.5.94,3.03,1.84,4.56,2.75.72.43,1.45.86,2.19,1.27,1.22.68,2.45,1.34,3.67,2.01.94.52,1.87,1.06,2.81,1.58,1.06.6,2.13,1.19,3.18,1.79,1.01.58,2.01,1.18,3.03,1.75,1.44.8,2.91,1.54,4.34,2.36,1.44.82,3.09.15,3.79-1.06.88-1.52,1.81-3.01,2.72-4.51.48-.78.95-1.57,1.4-2.36.65-1.13,1.3-2.27,1.94-3.41.56-1,1.11-2,1.67-3,.41-.73.83-1.46,1.26-2.19.51-.86,1.06-1.69,1.53-2.56.78-1.45,1.52-2.92,2.26-4.39.82-1.61,1.68-3.21,2.13-4.98.23-.9.33-1.83.21-2.73-.28-2.03-1.07-3.87-2.37-5.48-.14-.17-.13-.31-.02-.49,1.17-1.81,2.32-3.63,3.51-5.43.47-.71.85-1.46,1.23-2.2.81-1.56,1.51-3.17,2.08-4.84.78-2.27,1.33-4.54.78-6.98-.5-2.22-1.65-4.01-3.38-5.43-1.25-1.03-2.64-1.85-4.1-2.58-2.57-1.28-5.16-2.51-7.97-3.2-1.6-.39-3.18-.33-4.72.21-1.2.42-2.14,1.25-3.06,2.14-1.13,1.09-2.15,2.26-3.1,3.5-1.21,1.59-2.23,3.3-3.25,5.02-1.12,1.9-2.24,3.8-3.3,5.73-.2.37-.43.63-.93.45-.3-.11-.64-.1-.96-.11-1.81-.07-3.56.18-5.12,1.17-1.12.71-1.99,1.63-2.74,2.74-1.18,1.74-2.31,3.53-3.57,5.22-.37.5-.69,1.05-1.04,1.57-1.31,1.96-2.54,3.96-3.84,5.93-.51.77-.99,1.55-1.49,2.31-1.09,1.66-2.07,3.4-3.15,5.07-.66,1.03-1.36,2.03-1.94,3.11-.64,1.19-.67,2.38.14,3.55.57.82,1.49,1.18,2.15,1.79.82.51,1.55,1.06,2.32,1.56Zm34.78-43.1c1.01-.66,2.08-.67,3.21-.57,1.15.1,2.15.6,3.1,1.17.98.59,2.03,1.07,2.94,1.8,1.6,1.29,2.54,2.86,2.28,4.99-.09.75-.42,1.42-.78,2.04-.83,1.43-1.74,2.8-2.6,4.21-.96,1.58-1.89,3.17-2.82,4.77-.11.19-.19.23-.37.12-1-.59-2-1.2-3.02-1.76-1.19-.65-2.4-1.28-3.62-1.88-1.94-.96-3.9-1.89-5.85-2.83-.34-.16-.17-.41-.08-.6.35-.73.77-1.42,1.13-2.14.45-.9.97-1.75,1.46-2.63.75-1.33,1.43-2.7,2.4-3.87.73-1.1,1.51-2.11,2.62-2.84Zm-4.1,29.76c-.38.89-.91,1.69-1.41,2.51-.48.81-.9,1.65-1.39,2.46-.25.41-.49.83-.76,1.23-.95,1.43-1.73,2.96-2.65,4.4-.39.62-.74,1.27-1.17,1.86-.48.66-.93,1.34-1.18,2.14-.11.34-.68.45-1.08.23-1.13-.61-2.22-1.27-3.3-1.96-.97-.62-2.05-1.08-2.99-1.75-.44-.32-.48-.67-.2-1.14.85-1.44,1.79-2.83,2.58-4.3.51-.96,1.17-1.84,1.7-2.78.65-1.16,1.43-2.25,1.99-3.46.22-.48.57-.91.85-1.36.54-.87,1.01-1.78,1.68-2.56.7-.82,1.53-1.45,2.56-1.81,1.21-.43,2.27-.21,3.25.58,1.76,1.1,2.47,3.5,1.5,5.74Z"/><path class="cls-3" d="m403.39,47.94c.72.48,1.45.95,2.17,1.45.52.37,1.05.73,1.59,1.08,1.11.71,2.23,1.4,3.36,2.09.53.33,1.07.65,1.61.96.9.52,1.81,1.02,2.71,1.53.69.4,1.38.8,2.07,1.2.78.45,1.57.9,2.35,1.36.75.44,1.48.9,2.23,1.32,1.06.61,2.15,1.17,3.2,1.79,1.06.62,2.29.14,2.82-.75.67-1.12,1.37-2.22,2.07-3.32.36-.57.72-1.15,1.06-1.74.5-.83.98-1.67,1.47-2.51.43-.74.84-1.48,1.27-2.21.31-.54.63-1.08.96-1.61.38-.63.8-1.24,1.16-1.89.59-1.07,1.15-2.16,1.72-3.24.62-1.19,1.28-2.37,1.63-3.68.18-.67.27-1.36.18-2.02-.19-1.51-.76-2.89-1.71-4.09-.1-.13-.09-.23,0-.36.89-1.33,1.75-2.68,2.66-4,.36-.52.64-1.08.94-1.62.62-1.15,1.15-2.34,1.59-3.57.6-1.68,1.03-3.36.65-5.17-.35-1.65-1.18-2.99-2.46-4.06-.92-.77-1.94-1.4-3.02-1.95-1.9-.98-3.81-1.91-5.88-2.45-1.18-.3-2.36-.28-3.51.11-.9.3-1.6.91-2.29,1.56-.85.8-1.62,1.66-2.33,2.57-.91,1.17-1.69,2.43-2.46,3.7-.85,1.4-1.7,2.8-2.5,4.22-.15.27-.32.46-.7.32-.22-.08-.47-.08-.71-.09-1.34-.07-2.64.1-3.82.82-.83.51-1.49,1.19-2.06,2.01-.89,1.28-1.75,2.6-2.7,3.84-.28.37-.52.78-.78,1.16-.99,1.44-1.92,2.92-2.9,4.36-.38.56-.75,1.14-1.13,1.7-.83,1.22-1.57,2.5-2.39,3.73-.5.76-1.03,1.5-1.47,2.29-.49.88-.52,1.76.07,2.64.41.62,1.1.89,1.58,1.35.6.38,1.14.8,1.71,1.18Zm26.22-31.67c.76-.48,1.55-.48,2.39-.4.85.08,1.59.47,2.29.9.72.45,1.5.81,2.16,1.36,1.18.98,1.86,2.15,1.65,3.73-.07.56-.33,1.05-.6,1.51-.63,1.05-1.32,2.06-1.97,3.1-.72,1.16-1.43,2.34-2.13,3.51-.08.14-.14.17-.28.08-.74-.45-1.47-.91-2.22-1.33-.88-.49-1.77-.97-2.67-1.43-1.43-.73-2.88-1.44-4.32-2.15-.25-.12-.12-.31-.05-.44.27-.54.58-1.04.86-1.58.34-.66.74-1.29,1.11-1.94.57-.98,1.09-1.99,1.82-2.85.55-.81,1.14-1.55,1.98-2.08Zm-3.32,22.05c-.29.65-.69,1.24-1.07,1.85-.37.59-.68,1.22-1.05,1.81-.19.3-.37.61-.57.91-.72,1.05-1.31,2.18-2.01,3.24-.3.46-.56.93-.89,1.37-.36.49-.7.99-.89,1.57-.08.25-.51.32-.81.16-.83-.46-1.64-.97-2.43-1.49-.72-.47-1.51-.82-2.21-1.33-.33-.24-.35-.5-.14-.85.65-1.06,1.35-2.08,1.96-3.17.39-.71.88-1.35,1.29-2.05.5-.85,1.08-1.65,1.51-2.55.17-.36.43-.67.64-1,.41-.64.77-1.31,1.27-1.89.53-.6,1.15-1.06,1.92-1.32.9-.31,1.69-.14,2.41.46,1.3.84,1.8,2.62,1.06,4.27Z"/><path class="cls-2" d="m14.25,238.5c-3.44-1.97-6.76-4.24-9.83-6.74-10.35-8.44-19.85-17.69-26.82-29.25-3.81-6.31-6.49-13.09-7.48-20.38-1.98-14.56,1.5-28.14,7.9-41.13,4.44-9.01,10.37-17.07,16.1-25.26.87-1.25,1.99-1.49,3.31-1.49,25.75-.1,44.53,11.4,56.66,34,.54,1.01,1.09,2.04,1.8,2.92,1.38,1.7,3.53,1.87,5.2.45,1.9-1.62,2.74-3.73,2.19-6.16-.31-1.36-.05-2.38.84-3.32,2.22-2.35,4.29-4.89,6.73-6.99,10.36-8.95,22.38-13.63,36.15-13.58,2.15,0,2.68-.59,1.91-2.31-4.58-10.23-11.1-18.94-20.05-25.78-1.28-.98-2.33-1.09-3.57,0-2.72,2.42-5.46,4.82-8.29,7.11-.53.43-1.52.29-2.3.42-.05-.73-.38-1.6-.1-2.16,1.57-3.14,3.22-6.24,4.97-9.28,1.53-2.67,1.54-2.94-1.15-4.25-7.07-3.45-14.44-6-22.15-7.61-1.88-.39-2.55.24-2.89,1.98-.88,4.5-1.84,8.99-2.89,13.46-.17.73-.92,1.33-1.41,1.98-.64-.58-1.65-1.04-1.87-1.75-1.39-4.51-2.65-9.05-3.84-13.62-.31-1.17-.69-1.91-1.97-2.18-8.17-1.69-16.4-2.61-24.75-1.77-2.75.28-2.79.35-2.6,3.1.36,5.23.71,10.47,1.06,15.7l-.69.25c-2.06-4.48-4.1-8.98-6.22-13.44-.34-.72-.99-1.78-1.56-1.82-4.94-.36-9.73.5-14.53,2.03.83,2.05,1.62,3.84,2.26,5.69.17.49-.12,1.13-.19,1.7-.42-.35-1.03-.62-1.23-1.07-.86-1.89-1.59-3.84-2.49-6.05-3.36,1.52-6.67,3.01-9.98,4.51-1.29.59-1.39,1.46-.72,2.63,1.21,2.11,2.44,4.21,3.47,6.41.33.71.07,1.69.08,2.55-.86-.13-1.88,0-2.54-.43-2.49-1.62-4.9-3.37-7.25-5.18-1.27-.98-2.3-.93-3.65-.11-7.88,4.8-15.12,10.38-21.58,16.97-2.43,2.48-2.39,2.44.27,4.55.67.53,1.47,1.47,1.42,2.16-.04.55-1.22,1.21-2.01,1.47-3.45,1.13-6.1,3.16-7.61,6.5-.93,2.06-.62,2.56,1.57,3.08,3.23.76,6.3,1.86,8.9,4.19-.2.37-.34.67-.52.94-.45.67-.89,1.36-1.4,1.99-7.13,8.8-11.61,18.77-13.01,30.03-1.67,13.43,1.72,25.28,11.56,34.9,2.76,2.7,6.02,4.07,10.1,3.37,3.36-.58,6.83-.91,10.23-.82,3.33.09,4.52,2.56,3.04,5.55-.54,1.09-1.25,2.09-1.8,3.17-1.05,2.06-.16,3.98,2.11,4.41.97.18,2,.12,3,.09,1.48-.05,2.96-.29,4.43-.23,3.09.13,4.62,2.41,3.15,5.07-1.34,2.43-3.03,4.75-4.92,6.78-4.1,4.4-5.02,8.14-.7,12.2,1.91,1.8,3.86,3.61,6.03,5.06,4.32,2.87,8.67,5.73,13.25,8.15,5.88,3.11,11.98,5.82,18.03,8.62,1.94.9,4.06.71,5.33-1.06,2.37-3.31,4.92-6.59,5.42-10.89.19-1.66.61-3.29.92-4.94-3.63-1.69-7.36-3.14-10.79-5.11Zm19.93-158.12c-.85,7.42-.77,14.83.36,22.22.08.5-.4,1.08-.62,1.62-.31-.44-.83-.85-.91-1.33-1.25-7.58-1.35-15.19-.4-22.81.05-.41.35-.83.63-1.17.1-.12.48,0,.84.02.04.55.14,1.01.09,1.45Zm58.51,36.57c-5.92,2.21-11.34,5.3-16.35,9.15-.5.38-1.27.41-1.92.61.31-.63.45-1.48.94-1.87,5.07-3.97,10.64-7.11,16.68-9.38.44-.16.9-.35,1.35-.36.25,0,.57.28.73.53.1.17-.03.49-.06.74-.51.22-.93.43-1.37.59Zm-34.5-18.23c-1.29-.87-2.08-3.69-1-4.22,1.37-.67,3.22-1.05,4.65-.71,1.51.36,1.76,2.66.81,3.96-1.11,1.54-3,1.94-4.47.97Zm-84.69,37.06c-1.34-.87-1.44-2.48-.27-4.27.86-1.3,2.76-1.67,4.1-.79,1.37.9,1.69,2.65.75,4.05-1.05,1.57-3.03,2-4.58,1Zm-12.69-33.83c-.23-.33-.05-.95-.06-1.44.48.23,1.13.32,1.41.7,2.88,3.73,5.72,7.5,8.51,11.3.29.4.25,1.05.36,1.58-.47-.02-.94-.04-1.66-.07-2.89-4.05-5.76-8.04-8.57-12.07Zm25.2,3.71c-.94-.15-1.04-3.41-.11-4.41.76-.83,1.61-1.98,3.02-.94,1.29.94,1.81,3.15,1.1,4.87-1.34.19-2.73.68-4.01.47Zm111.78,11.96c-1.07-.32-1.17-2.58-.05-3.75.54-.56,1.79-.96,2.49-.74,1.18.38,1.2,2.15-.13,4.12-.45.09-1.49.61-2.31.37Zm-27.68-.45c1.52-1.8,3.08-3.58,4.68-5.31.26-.28.79-.31,1.19-.45.06.41.33,1,.15,1.21-1.75,2.04-3.57,4.03-5.39,6.01-.14.15-.48.12-1.34.29.34-.87.41-1.4.71-1.75Zm-117.51-7.52c-.24-.31-.08-.93-.11-1.41.45.16,1.04.19,1.33.5,1.39,1.46,2.73,2.97,4.01,4.53.26.32.19.92.28,1.39-.48-.01-.96-.02-1.43-.03-1.46-1.75-2.82-3.33-4.09-4.98Zm74.76-18.18c-.25-.06-.59-.41-.62-.66-.24-2.01-.43-4.02-.58-6.04-.02-.26.27-.67.52-.77.22-.09.81.13.83.28.33,2.25.6,4.51.89,6.84-.47.18-.79.42-1.04.36Zm-39.86.14c-.89-1.49-1.71-3.03-2.49-4.58-.09-.19.11-.69.32-.81.22-.13.8-.09.89.06.92,1.56,1.78,3.14,2.61,4.74.1.19-.05.5-.11,1.02-.51-.17-1.07-.18-1.22-.44Zm-14.27,51.14c-.3-.94-.41-1.99-.33-2.98.01-.18,1.7-.5,1.76-.36.42.93.61,1.95,1.01,3.45-1.24-.04-2.37.1-2.43-.11Zm82.21-37.01c.18-.31.99-.25,1.51-.36.02.73.19,1.51,0,2.18-.08.27-.96.3-1.9.55.15-1.07.08-1.84.39-2.37Zm-87.76,41.07c-.37-.28-.59-1.25-.38-1.65.19-.35,1.18-.58,1.62-.39.39.17.5.98.89,1.86-1,.11-1.78.44-2.13.18Zm21.41-35.76c-.35.35-1.09.32-1.66.46.01-.6-.18-1.32.09-1.77.24-.39.98-.48,2.08-.95-.24,1.18-.18,1.92-.51,2.26Zm65.36-8.66c-.31-.42-.44-1.18-.27-1.66.1-.26,1.08-.47,1.46-.28.34.17.39.91.68,1.69-.88.13-1.72.45-1.87.25Zm-63.63,5.47c-.34-.29-.32-.99-.46-1.5.58-.07,1.24-.35,1.7-.16.33.14.38.92.71,1.83-.96-.06-1.64.1-1.95-.17Zm-19.24,31.12c-.35.38-1.09.41-1.66.59-.12-.53-.51-1.21-.31-1.55.26-.43.98-.58,1.91-1.06.05,1.01.31,1.75.06,2.02Z"/><path class="cls-3" d="m25.94,183.15c1.85-11.31-4.26-18.93-15.51-19.23-4.65-.12-9.17.81-13.41,2.65-10.17,4.41-13.23,13.51-7.45,23.04,2.23,3.69,5.26,6.98,8.35,10.03,4.06,4.01,9.06,4.4,14.27,2.34,3.76-1.49,6.54-4.2,8.97-7.41,2.32-3.46,4.09-7.21,4.78-11.42Z"/><path class="cls-3" d="m61.48,209.63c1.33-8.62-3.7-14.77-12.42-14.95-5.45-.11-10.58,1.31-15.2,4.23-5.87,3.7-7.79,10.5-4.88,16.82,1.78,3.86,4.34,7.11,7.54,9.9,3.24,2.82,6.84,3.61,10.92,2.37,4.2-1.28,7.19-4.13,9.62-7.39,2.33-3.47,3.82-7.05,4.43-10.98Z"/><path class="cls-3" d="m6.54,222.74c1.18,1.66,3.22,2.1,6.06,1.3,1.8-.51,2.37.03,2.56,1.93.13,1.27.29,2.8,1.05,3.7,2.51,2.96,6.75,1.7,7.92-2.34.77-2.65,1.39-5.38,1.72-8.11.39-3.19.66-6.44.47-9.63-.15-2.52-1.86-3.48-4.33-2.91-1.43.33-2.8.96-4.13,1.62-4,1.98-7.88,4.16-10.23,7.01-2.33,3.23-2.53,5.44-1.11,7.44Zm17.54-5.27c0,.12-.97.19-1.49.28-.18-1.2-.43-2.4-.47-3.61,0-.17.96-.38,1.91-.74.04,1.63.12,2.85.04,4.07Zm-2.29,2.66c.26-.29,1.18-.4,1.48-.16.32.25.49,1.13.29,1.48-.19.34-.95.35-1.83.62,0-.92-.2-1.63.06-1.94Z"/><path class="cls-2" d="m41.2,244.62c4.02-1.25,8.04-2.51,12.1-3.77-1.64,2.94-4,5.56-6.69,7.91.33-.41,1.01-.92.92-1.21-.27-.9-.73-1.78-1.32-2.5-.17-.2-1.5.19-1.5.27.05.87.1,1.8.47,2.56.21.44,1.01.59,1.54.87-2.47,2.03-5.13,3.16-8.34,1.83-2.48-1.02-3.23-3.38-4.56-5.53,2.67-.16,5.06-.3,7.46-.44-.77.63-1.5,1.37-.55,2.28.3.29,1.31.22,1.72-.08.97-.71.42-1.65-1.24-2.19Z"/><path class="cls-2" d="m61.95,153.84c6.52,3.04,9.65,36.9,4.22,42.56,3.09-14.46,2.25-28.54-4.22-42.56Z"/><path class="cls-2" d="m39.48,132.8c-.75-.44-1.58-.8-2.25-1.35-6.67-5.52-14.03-9.83-22.31-12.38-2.81-.87-5.81-1.14-8.72-1.67-.57-.1-1.15-.15-1.73-.22-.04-.23-.08-.47-.12-.7.62-.13,1.3-.47,1.87-.34,4.77,1.11,9.69,1.87,14.25,3.58,6.52,2.45,12.29,6.42,17.74,10.77.47.38.88.83,1.3,1.27.13.13.17.34.26.51-.09.17-.19.35-.28.52Z"/><path class="cls-2" d="m35.65,134.17c-5.55-3.43-11.1-6.87-16.84-10.42,2.33-.66,15.57,7.34,16.84,10.42Z"/><path class="cls-2" d="m58.39,224.13c-.99,5.28-3.54,9.82-6.81,14.01l-.71-.35c1.25-2.25,2.63-4.44,3.73-6.76,1.12-2.36,1.97-4.85,2.93-7.28.29.12.58.25.87.37Z"/><path class="cls-2" d="m63.51,178.61c-.69-3.38-1.39-6.77-2.08-10.15,1.86.85,3.46,8.18,2.77,10.02-.23.04-.46.09-.69.13Z"/><path class="cls-2" d="m41.8,137.31c1.77-.08,4.82,2.51,5.7,4.79-2.74-.97-3.94-3.21-5.7-4.79Z"/><path class="cls-2" d="m58.27,177.77c.03-1.09.06-2.18.09-3.27.25,0,.49,0,.74,0,.74,1.08.69,2.18-.11,3.31-.24-.01-.48-.02-.72-.03Z"/><path class="cls-2" d="m81.72,190.54c.98.63,1.97,1.25,2.94,1.91.71.49,1.43.97,2.16,1.43,1.5.94,3.03,1.84,4.56,2.75.72.43,1.45.86,2.19,1.27,1.22.68,2.45,1.34,3.67,2.01.94.52,1.87,1.06,2.81,1.58,1.06.6,2.13,1.19,3.18,1.79,1.01.58,2.01,1.18,3.03,1.75,1.44.8,2.91,1.54,4.34,2.36,1.44.82,3.09.15,3.79-1.06.88-1.52,1.81-3.01,2.72-4.51.48-.78.95-1.57,1.4-2.36.65-1.13,1.3-2.27,1.94-3.41.56-1,1.11-2,1.67-3,.41-.73.83-1.46,1.26-2.19.51-.86,1.06-1.69,1.53-2.56.78-1.45,1.52-2.92,2.26-4.39.82-1.61,1.68-3.21,2.13-4.98.23-.9.33-1.83.21-2.73-.28-2.03-1.07-3.87-2.37-5.48-.14-.17-.13-.31-.02-.49,1.17-1.81,2.32-3.63,3.51-5.43.47-.71.85-1.46,1.23-2.2.81-1.56,1.51-3.17,2.08-4.84.78-2.27,1.33-4.54.78-6.98-.5-2.22-1.65-4.01-3.38-5.43-1.25-1.03-2.64-1.85-4.1-2.58-2.57-1.28-5.16-2.51-7.97-3.2-1.6-.39-3.18-.33-4.72.21-1.2.42-2.14,1.25-3.06,2.14-1.13,1.09-2.15,2.26-3.1,3.5-1.21,1.59-2.23,3.3-3.25,5.02-1.12,1.9-2.24,3.8-3.3,5.73-.2.37-.43.63-.93.45-.3-.11-.64-.1-.96-.11-1.81-.07-3.56.18-5.12,1.17-1.12.71-1.99,1.63-2.74,2.74-1.18,1.74-2.31,3.53-3.57,5.22-.37.5-.69,1.05-1.04,1.57-1.31,1.96-2.54,3.96-3.84,5.93-.51.77-.99,1.55-1.49,2.31-1.09,1.66-2.07,3.4-3.15,5.07-.66,1.03-1.36,2.03-1.94,3.11-.64,1.19-.67,2.38.14,3.55.57.82,1.49,1.18,2.15,1.79.82.51,1.55,1.06,2.32,1.56Zm34.78-43.1c1.01-.66,2.08-.67,3.21-.57,1.15.1,2.15.6,3.1,1.17.98.59,2.03,1.07,2.94,1.8,1.6,1.29,2.54,2.86,2.28,4.99-.09.75-.42,1.42-.78,2.04-.83,1.43-1.74,2.8-2.6,4.21-.96,1.58-1.89,3.17-2.82,4.77-.11.19-.19.23-.37.12-1-.59-2-1.2-3.02-1.76-1.19-.65-2.4-1.28-3.62-1.88-1.94-.96-3.9-1.89-5.85-2.83-.34-.16-.17-.41-.08-.6.35-.73.77-1.42,1.13-2.14.45-.9.97-1.75,1.46-2.63.75-1.33,1.43-2.7,2.4-3.87.73-1.1,1.51-2.11,2.62-2.84Zm-4.1,29.76c-.38.89-.91,1.69-1.41,2.51-.48.81-.9,1.65-1.39,2.46-.25.41-.49.83-.76,1.23-.95,1.43-1.73,2.96-2.65,4.4-.39.62-.74,1.27-1.17,1.86-.48.66-.93,1.34-1.18,2.14-.11.34-.68.45-1.08.23-1.13-.61-2.22-1.27-3.3-1.96-.97-.62-2.05-1.08-2.99-1.75-.44-.32-.48-.67-.2-1.14.85-1.44,1.79-2.83,2.58-4.3.51-.96,1.17-1.84,1.7-2.78.65-1.16,1.43-2.25,1.99-3.46.22-.48.57-.91.85-1.36.54-.87,1.01-1.78,1.68-2.56.7-.82,1.53-1.45,2.56-1.81,1.21-.43,2.27-.21,3.25.58,1.76,1.1,2.47,3.5,1.5,5.74Z"/><path class="cls-2" d="m219.78,238.5c-3.44-1.97-6.76-4.24-9.83-6.74-10.35-8.44-19.85-17.69-26.82-29.25-3.81-6.31-6.49-13.09-7.48-20.38-1.98-14.56,1.5-28.14,7.9-41.13,4.44-9.01,10.37-17.07,16.1-25.26.87-1.25,1.99-1.49,3.31-1.49,25.75-.1,44.53,11.4,56.66,34,.54,1.01,1.09,2.04,1.8,2.92,1.38,1.7,3.53,1.87,5.2.45,1.9-1.62,2.74-3.73,2.19-6.16-.31-1.36-.05-2.38.84-3.32,2.22-2.35,4.29-4.89,6.73-6.99,10.36-8.95,22.38-13.63,36.15-13.58,2.15,0,2.68-.59,1.91-2.31-4.58-10.23-11.1-18.94-20.05-25.78-1.28-.98-2.33-1.09-3.57,0-2.72,2.42-5.46,4.82-8.29,7.11-.53.43-1.52.29-2.3.42-.05-.73-.38-1.6-.1-2.16,1.57-3.14,3.22-6.24,4.97-9.28,1.53-2.67,1.54-2.94-1.15-4.25-7.07-3.45-14.44-6-22.15-7.61-1.88-.39-2.55.24-2.89,1.98-.88,4.5-1.84,8.99-2.89,13.46-.17.73-.92,1.33-1.41,1.98-.64-.58-1.65-1.04-1.87-1.75-1.39-4.51-2.65-9.05-3.84-13.62-.31-1.17-.69-1.91-1.97-2.18-8.17-1.69-16.4-2.61-24.75-1.77-2.75.28-2.79.35-2.6,3.1.36,5.23.71,10.47,1.06,15.7l-.69.25c-2.06-4.48-4.1-8.98-6.22-13.44-.34-.72-.99-1.78-1.56-1.82-4.94-.36-9.73.5-14.53,2.03.83,2.05,1.62,3.84,2.26,5.69.17.49-.12,1.13-.19,1.7-.42-.35-1.03-.62-1.23-1.07-.86-1.89-1.59-3.84-2.49-6.05-3.36,1.52-6.67,3.01-9.98,4.51-1.29.59-1.39,1.46-.72,2.63,1.21,2.11,2.44,4.21,3.47,6.41.33.71.07,1.69.08,2.55-.86-.13-1.88,0-2.54-.43-2.49-1.62-4.9-3.37-7.25-5.18-1.27-.98-2.3-.93-3.65-.11-7.88,4.8-15.12,10.38-21.58,16.97-2.43,2.48-2.39,2.44.27,4.55.67.53,1.47,1.47,1.42,2.16-.04.55-1.22,1.21-2.01,1.47-3.45,1.13-6.1,3.16-7.61,6.5-.93,2.06-.62,2.56,1.57,3.08,3.23.76,6.3,1.86,8.9,4.19-.2.37-.34.67-.52.94-.45.67-.89,1.36-1.4,1.99-7.13,8.8-11.61,18.77-13.01,30.03-1.67,13.43,1.72,25.28,11.56,34.9,2.76,2.7,6.02,4.07,10.1,3.37,3.36-.58,6.83-.91,10.23-.82,3.33.09,4.52,2.56,3.04,5.55-.54,1.09-1.25,2.09-1.8,3.17-1.05,2.06-.16,3.98,2.11,4.41.97.18,2,.12,3,.09,1.48-.05,2.96-.29,4.43-.23,3.09.13,4.62,2.41,3.15,5.07-1.34,2.43-3.03,4.75-4.92,6.78-4.1,4.4-5.02,8.14-.7,12.2,1.91,1.8,3.86,3.61,6.03,5.06,4.32,2.87,8.67,5.73,13.25,8.15,5.88,3.11,11.98,5.82,18.03,8.62,1.94.9,4.06.71,5.33-1.06,2.37-3.31,4.92-6.59,5.42-10.89.19-1.66.61-3.29.92-4.94-3.63-1.69-7.36-3.14-10.79-5.11Zm19.93-158.12c-.85,7.42-.77,14.83.36,22.22.08.5-.4,1.08-.62,1.62-.31-.44-.83-.85-.91-1.33-1.25-7.58-1.35-15.19-.4-22.81.05-.41.35-.83.63-1.17.1-.12.48,0,.84.02.04.55.14,1.01.09,1.45Zm58.51,36.57c-5.92,2.21-11.34,5.3-16.35,9.15-.5.38-1.27.41-1.92.61.31-.63.45-1.48.94-1.87,5.07-3.97,10.64-7.11,16.68-9.38.44-.16.9-.35,1.35-.36.25,0,.57.28.73.53.1.17-.03.49-.06.74-.51.22-.93.43-1.37.59Zm-34.5-18.23c-1.29-.87-2.08-3.69-1-4.22,1.37-.67,3.22-1.05,4.65-.71,1.51.36,1.76,2.66.81,3.96-1.11,1.54-3,1.94-4.47.97Zm-84.69,37.06c-1.34-.87-1.44-2.48-.27-4.27.86-1.3,2.76-1.67,4.1-.79,1.37.9,1.69,2.65.75,4.05-1.05,1.57-3.03,2-4.58,1Zm-12.69-33.83c-.23-.33-.05-.95-.06-1.44.48.23,1.13.32,1.41.7,2.88,3.73,5.72,7.5,8.51,11.3.29.4.25,1.05.36,1.58-.47-.02-.94-.04-1.66-.07-2.89-4.05-5.76-8.04-8.57-12.07Zm25.2,3.71c-.94-.15-1.04-3.41-.11-4.41.76-.83,1.61-1.98,3.02-.94,1.29.94,1.81,3.15,1.1,4.87-1.34.19-2.73.68-4.01.47Zm111.78,11.96c-1.07-.32-1.17-2.58-.05-3.75.54-.56,1.79-.96,2.49-.74,1.18.38,1.2,2.15-.13,4.12-.45.09-1.49.61-2.31.37Zm-27.68-.45c1.52-1.8,3.08-3.58,4.68-5.31.26-.28.79-.31,1.19-.45.06.41.33,1,.15,1.21-1.75,2.04-3.57,4.03-5.39,6.01-.14.15-.48.12-1.34.29.34-.87.41-1.4.71-1.75Zm-117.51-7.52c-.24-.31-.08-.93-.11-1.41.45.16,1.04.19,1.33.5,1.39,1.46,2.73,2.97,4.01,4.53.26.32.19.92.28,1.39-.48-.01-.96-.02-1.43-.03-1.46-1.75-2.82-3.33-4.09-4.98Zm74.76-18.18c-.25-.06-.59-.41-.62-.66-.24-2.01-.43-4.02-.58-6.04-.02-.26.27-.67.52-.77.22-.09.81.13.83.28.33,2.25.6,4.51.89,6.84-.47.18-.79.42-1.04.36Zm-39.86.14c-.89-1.49-1.71-3.03-2.49-4.58-.09-.19.11-.69.32-.81.22-.13.8-.09.89.06.92,1.56,1.78,3.14,2.61,4.74.1.19-.05.5-.11,1.02-.51-.17-1.07-.18-1.22-.44Zm-14.27,51.14c-.3-.94-.41-1.99-.33-2.98.01-.18,1.7-.5,1.76-.36.42.93.61,1.95,1.01,3.45-1.24-.04-2.37.1-2.43-.11Zm82.21-37.01c.18-.31.99-.25,1.51-.36.02.73.19,1.51,0,2.18-.08.27-.96.3-1.9.55.15-1.07.08-1.84.39-2.37Zm-87.76,41.07c-.37-.28-.59-1.25-.38-1.65.19-.35,1.18-.58,1.62-.39.39.17.5.98.89,1.86-1,.11-1.78.44-2.13.18Zm21.41-35.76c-.35.35-1.09.32-1.66.46.01-.6-.18-1.32.09-1.77.24-.39.98-.48,2.08-.95-.24,1.18-.18,1.92-.51,2.26Zm65.36-8.66c-.31-.42-.44-1.18-.27-1.66.1-.26,1.08-.47,1.46-.28.34.17.39.91.68,1.69-.88.13-1.72.45-1.87.25Zm-63.63,5.47c-.34-.29-.32-.99-.46-1.5.58-.07,1.24-.35,1.7-.16.33.14.38.92.71,1.83-.96-.06-1.64.1-1.95-.17Zm-19.24,31.12c-.35.38-1.09.41-1.66.59-.12-.53-.51-1.21-.31-1.55.26-.43.98-.58,1.91-1.06.05,1.01.31,1.75.06,2.02Z"/><path class="cls-3" d="m231.48,183.15c1.85-11.31-4.26-18.93-15.51-19.23-4.65-.12-9.17.81-13.41,2.65-10.17,4.41-13.23,13.51-7.45,23.04,2.23,3.69,5.26,6.98,8.35,10.03,4.06,4.01,9.06,4.4,14.27,2.34,3.76-1.49,6.54-4.2,8.97-7.41,2.32-3.46,4.09-7.21,4.78-11.42Z"/><path class="cls-3" d="m267.02,209.63c1.33-8.62-3.7-14.77-12.42-14.95-5.45-.11-10.58,1.31-15.2,4.23-5.87,3.7-7.79,10.5-4.88,16.82,1.78,3.86,4.34,7.11,7.54,9.9,3.24,2.82,6.84,3.61,10.92,2.37,4.2-1.28,7.19-4.13,9.62-7.39,2.33-3.47,3.82-7.05,4.43-10.98Z"/><path class="cls-3" d="m212.07,222.74c1.18,1.66,3.22,2.1,6.06,1.3,1.8-.51,2.37.03,2.56,1.93.13,1.27.29,2.8,1.05,3.7,2.51,2.96,6.75,1.7,7.92-2.34.77-2.65,1.39-5.38,1.72-8.11.39-3.19.66-6.44.47-9.63-.15-2.52-1.86-3.48-4.33-2.91-1.43.33-2.8.96-4.13,1.62-4,1.98-7.88,4.16-10.23,7.01-2.33,3.23-2.53,5.44-1.11,7.44Zm17.54-5.27c0,.12-.97.19-1.49.28-.18-1.2-.43-2.4-.47-3.61,0-.17.96-.38,1.91-.74.04,1.63.12,2.85.04,4.07Zm-2.29,2.66c.26-.29,1.18-.4,1.48-.16.32.25.49,1.13.29,1.48-.19.34-.95.35-1.83.62,0-.92-.2-1.63.06-1.94Z"/><path class="cls-2" d="m246.74,244.62c4.02-1.25,8.04-2.51,12.1-3.77-1.64,2.94-4,5.56-6.69,7.91.33-.41,1.01-.92.92-1.21-.27-.9-.73-1.78-1.32-2.5-.17-.2-1.5.19-1.5.27.05.87.1,1.8.47,2.56.21.44,1.01.59,1.54.87-2.47,2.03-5.13,3.16-8.34,1.83-2.48-1.02-3.23-3.38-4.56-5.53,2.67-.16,5.06-.3,7.46-.44-.77.63-1.5,1.37-.55,2.28.3.29,1.31.22,1.72-.08.97-.71.42-1.65-1.24-2.19Z"/><path class="cls-2" d="m267.49,153.84c6.52,3.04,9.65,36.9,4.22,42.56,3.09-14.46,2.25-28.54-4.22-42.56Z"/><path class="cls-2" d="m245.02,132.8c-.75-.44-1.58-.8-2.25-1.35-6.67-5.52-14.03-9.83-22.31-12.38-2.81-.87-5.81-1.14-8.72-1.67-.57-.1-1.15-.15-1.73-.22-.04-.23-.08-.47-.12-.7.62-.13,1.3-.47,1.87-.34,4.77,1.11,9.69,1.87,14.25,3.58,6.52,2.45,12.29,6.42,17.74,10.77.47.38.88.83,1.3,1.27.13.13.17.34.26.51-.09.17-.19.35-.28.52Z"/><path class="cls-2" d="m241.19,134.17c-5.55-3.43-11.1-6.87-16.84-10.42,2.33-.66,15.57,7.34,16.84,10.42Z"/><path class="cls-2" d="m263.93,224.13c-.99,5.28-3.54,9.82-6.81,14.01l-.71-.35c1.25-2.25,2.63-4.44,3.73-6.76,1.12-2.36,1.97-4.85,2.93-7.28.29.12.58.25.87.37Z"/><path class="cls-2" d="m269.04,178.61c-.69-3.38-1.39-6.77-2.08-10.15,1.86.85,3.46,8.18,2.77,10.02-.23.04-.46.09-.69.13Z"/><path class="cls-2" d="m247.33,137.31c1.77-.08,4.82,2.51,5.7,4.79-2.74-.97-3.94-3.21-5.7-4.79Z"/><path class="cls-2" d="m263.81,177.77c.03-1.09.06-2.18.09-3.27.25,0,.49,0,.74,0,.74,1.08.69,2.18-.11,3.31-.24-.01-.48-.02-.72-.03Z"/><path class="cls-3" d="m95.09,247.69c.72.48,1.45.95,2.17,1.45.52.37,1.05.73,1.59,1.08,1.11.71,2.23,1.4,3.36,2.09.53.33,1.07.65,1.61.96.9.52,1.81,1.02,2.71,1.53.69.4,1.38.8,2.07,1.2.78.45,1.57.9,2.35,1.36.75.44,1.48.9,2.23,1.32,1.06.61,2.15,1.17,3.2,1.79,1.06.62,2.29.14,2.82-.75.67-1.12,1.37-2.22,2.07-3.32.36-.57.72-1.15,1.06-1.74.5-.83.98-1.67,1.47-2.51.43-.74.84-1.48,1.27-2.21.31-.54.63-1.08.96-1.61.38-.63.8-1.24,1.16-1.89.59-1.07,1.15-2.16,1.72-3.24.62-1.19,1.28-2.37,1.63-3.68.18-.67.27-1.36.18-2.02-.19-1.51-.76-2.89-1.71-4.09-.1-.13-.09-.23,0-.36.89-1.33,1.75-2.68,2.66-4,.36-.52.64-1.08.94-1.62.62-1.15,1.15-2.34,1.59-3.57.6-1.68,1.03-3.36.65-5.17-.35-1.65-1.18-2.99-2.46-4.06-.92-.77-1.94-1.4-3.02-1.95-1.9-.98-3.81-1.91-5.88-2.45-1.18-.3-2.36-.28-3.51.11-.9.3-1.6.91-2.29,1.56-.85.8-1.62,1.66-2.33,2.57-.91,1.17-1.69,2.43-2.46,3.7-.85,1.4-1.7,2.8-2.5,4.22-.15.27-.32.46-.7.32-.22-.08-.47-.08-.71-.09-1.34-.07-2.64.1-3.82.82-.83.51-1.49,1.19-2.06,2.01-.89,1.28-1.75,2.6-2.7,3.84-.28.37-.52.78-.78,1.16-.99,1.44-1.92,2.92-2.9,4.36-.38.56-.75,1.14-1.13,1.7-.83,1.22-1.57,2.5-2.39,3.73-.5.76-1.03,1.5-1.47,2.29-.49.88-.52,1.76.07,2.64.41.62,1.1.89,1.58,1.35.6.38,1.14.8,1.71,1.18Zm26.22-31.67c.76-.48,1.55-.48,2.39-.4.85.08,1.59.47,2.29.9.72.45,1.5.81,2.16,1.36,1.18.98,1.86,2.15,1.65,3.73-.07.56-.33,1.05-.6,1.51-.63,1.05-1.32,2.06-1.97,3.1-.72,1.16-1.43,2.34-2.13,3.51-.08.14-.14.17-.28.08-.74-.45-1.47-.91-2.22-1.33-.88-.49-1.77-.97-2.67-1.43-1.43-.73-2.88-1.44-4.32-2.15-.25-.12-.12-.31-.05-.44.27-.54.58-1.04.86-1.58.34-.66.74-1.29,1.11-1.94.57-.98,1.09-1.99,1.82-2.85.55-.81,1.14-1.55,1.98-2.08Zm-3.32,22.05c-.29.65-.69,1.24-1.07,1.85-.37.59-.68,1.22-1.05,1.81-.19.3-.37.61-.57.91-.72,1.05-1.31,2.18-2.01,3.24-.3.46-.56.93-.89,1.37-.36.49-.7.99-.89,1.57-.08.25-.51.32-.81.16-.83-.46-1.64-.97-2.43-1.49-.72-.47-1.51-.82-2.21-1.33-.33-.24-.35-.5-.14-.85.65-1.06,1.35-2.08,1.96-3.17.39-.71.88-1.35,1.29-2.05.5-.85,1.08-1.65,1.51-2.55.17-.36.43-.67.64-1,.41-.64.77-1.31,1.27-1.89.53-.6,1.15-1.06,1.92-1.32.9-.31,1.69-.14,2.41.46,1.3.84,1.8,2.62,1.06,4.27Z"/><path class="cls-2" d="m287.25,190.54c.98.63,1.97,1.25,2.94,1.91.71.49,1.43.97,2.16,1.43,1.5.94,3.03,1.84,4.56,2.75.72.43,1.45.86,2.19,1.27,1.22.68,2.45,1.34,3.67,2.01.94.52,1.87,1.06,2.81,1.58,1.06.6,2.13,1.19,3.18,1.79,1.01.58,2.01,1.18,3.03,1.75,1.44.8,2.91,1.54,4.34,2.36,1.44.82,3.09.15,3.79-1.06.88-1.52,1.81-3.01,2.72-4.51.48-.78.95-1.57,1.4-2.36.65-1.13,1.3-2.27,1.94-3.41.56-1,1.11-2,1.67-3,.41-.73.83-1.46,1.26-2.19.51-.86,1.06-1.69,1.53-2.56.78-1.45,1.52-2.92,2.26-4.39.82-1.61,1.68-3.21,2.13-4.98.23-.9.33-1.83.21-2.73-.28-2.03-1.07-3.87-2.37-5.48-.14-.17-.13-.31-.02-.49,1.17-1.81,2.32-3.63,3.51-5.43.47-.71.85-1.46,1.23-2.2.81-1.56,1.51-3.17,2.08-4.84.78-2.27,1.33-4.54.78-6.98-.5-2.22-1.65-4.01-3.38-5.43-1.25-1.03-2.64-1.85-4.1-2.58-2.57-1.28-5.16-2.51-7.97-3.2-1.6-.39-3.18-.33-4.72.21-1.2.42-2.14,1.25-3.06,2.14-1.13,1.09-2.15,2.26-3.1,3.5-1.21,1.59-2.23,3.3-3.25,5.02-1.12,1.9-2.24,3.8-3.3,5.73-.2.37-.43.63-.93.45-.3-.11-.64-.1-.96-.11-1.81-.07-3.56.18-5.12,1.17-1.12.71-1.99,1.63-2.74,2.74-1.18,1.74-2.31,3.53-3.57,5.22-.37.5-.69,1.05-1.04,1.57-1.31,1.96-2.54,3.96-3.84,5.93-.51.77-.99,1.55-1.49,2.31-1.09,1.66-2.07,3.4-3.15,5.07-.66,1.03-1.36,2.03-1.94,3.11-.64,1.19-.67,2.38.14,3.55.57.82,1.49,1.18,2.15,1.79.82.51,1.55,1.06,2.32,1.56Zm34.78-43.1c1.01-.66,2.08-.67,3.21-.57,1.15.1,2.15.6,3.1,1.17.98.59,2.03,1.07,2.94,1.8,1.6,1.29,2.54,2.86,2.28,4.99-.09.75-.42,1.42-.78,2.04-.83,1.43-1.74,2.8-2.6,4.21-.96,1.58-1.89,3.17-2.82,4.77-.11.19-.19.23-.37.12-1-.59-2-1.2-3.02-1.76-1.19-.65-2.4-1.28-3.62-1.88-1.94-.96-3.9-1.89-5.85-2.83-.34-.16-.17-.41-.08-.6.35-.73.77-1.42,1.13-2.14.45-.9.97-1.75,1.46-2.63.75-1.33,1.43-2.7,2.4-3.87.73-1.1,1.51-2.11,2.62-2.84Zm-4.1,29.76c-.38.89-.91,1.69-1.41,2.51-.48.81-.9,1.65-1.39,2.46-.25.41-.49.83-.76,1.23-.95,1.43-1.73,2.96-2.65,4.4-.39.62-.74,1.27-1.17,1.86-.48.66-.93,1.34-1.18,2.14-.11.34-.68.45-1.08.23-1.13-.61-2.22-1.27-3.3-1.96-.97-.62-2.05-1.08-2.99-1.75-.44-.32-.48-.67-.2-1.14.85-1.44,1.79-2.83,2.58-4.3.51-.96,1.17-1.84,1.7-2.78.65-1.16,1.43-2.25,1.99-3.46.22-.48.57-.91.85-1.36.54-.87,1.01-1.78,1.68-2.56.7-.82,1.53-1.45,2.56-1.81,1.21-.43,2.27-.21,3.25.58,1.76,1.1,2.47,3.5,1.5,5.74Z"/><path class="cls-2" d="m425.32,238.5c-3.44-1.97-6.76-4.24-9.83-6.74-10.35-8.44-19.85-17.69-26.82-29.25-3.81-6.31-6.49-13.09-7.48-20.38-1.98-14.56,1.5-28.14,7.9-41.13,4.44-9.01,10.37-17.07,16.1-25.26.87-1.25,1.99-1.49,3.31-1.49,25.75-.1,44.53,11.4,56.66,34,.54,1.01,1.09,2.04,1.8,2.92,1.38,1.7,3.53,1.87,5.2.45,1.9-1.62,2.74-3.73,2.19-6.16-.31-1.36-.05-2.38.84-3.32,2.22-2.35,4.29-4.89,6.73-6.99,10.36-8.95,22.38-13.63,36.15-13.58,2.15,0,2.68-.59,1.91-2.31-4.58-10.23-11.1-18.94-20.05-25.78-1.28-.98-2.33-1.09-3.57,0-2.72,2.42-5.46,4.82-8.29,7.11-.53.43-1.52.29-2.3.42-.05-.73-.38-1.6-.1-2.16,1.57-3.14,3.22-6.24,4.97-9.28,1.53-2.67,1.54-2.94-1.15-4.25-7.07-3.45-14.44-6-22.15-7.61-1.88-.39-2.55.24-2.89,1.98-.88,4.5-1.84,8.99-2.89,13.46-.17.73-.92,1.33-1.41,1.98-.64-.58-1.65-1.04-1.87-1.75-1.39-4.51-2.65-9.05-3.84-13.62-.31-1.17-.69-1.91-1.97-2.18-8.17-1.69-16.4-2.61-24.75-1.77-2.75.28-2.79.35-2.6,3.1.36,5.23.71,10.47,1.06,15.7l-.69.25c-2.06-4.48-4.1-8.98-6.22-13.44-.34-.72-.99-1.78-1.56-1.82-4.94-.36-9.73.5-14.53,2.03.83,2.05,1.62,3.84,2.26,5.69.17.49-.12,1.13-.19,1.7-.42-.35-1.03-.62-1.23-1.07-.86-1.89-1.59-3.84-2.49-6.05-3.36,1.52-6.67,3.01-9.98,4.51-1.29.59-1.39,1.46-.72,2.63,1.21,2.11,2.44,4.21,3.47,6.41.33.71.07,1.69.08,2.55-.86-.13-1.88,0-2.54-.43-2.49-1.62-4.9-3.37-7.25-5.18-1.27-.98-2.3-.93-3.65-.11-7.88,4.8-15.12,10.38-21.58,16.97-2.43,2.48-2.39,2.44.27,4.55.67.53,1.47,1.47,1.42,2.16-.04.55-1.22,1.21-2.01,1.47-3.45,1.13-6.1,3.16-7.61,6.5-.93,2.06-.62,2.56,1.57,3.08,3.23.76,6.3,1.86,8.9,4.19-.2.37-.34.67-.52.94-.45.67-.89,1.36-1.4,1.99-7.13,8.8-11.61,18.77-13.01,30.03-1.67,13.43,1.72,25.28,11.56,34.9,2.76,2.7,6.02,4.07,10.1,3.37,3.36-.58,6.83-.91,10.23-.82,3.33.09,4.52,2.56,3.04,5.55-.54,1.09-1.25,2.09-1.8,3.17-1.05,2.06-.16,3.98,2.11,4.41.97.18,2,.12,3,.09,1.48-.05,2.96-.29,4.43-.23,3.09.13,4.62,2.41,3.15,5.07-1.34,2.43-3.03,4.75-4.92,6.78-4.1,4.4-5.02,8.14-.7,12.2,1.91,1.8,3.86,3.61,6.03,5.06,4.32,2.87,8.67,5.73,13.25,8.15,5.88,3.11,11.98,5.82,18.03,8.62,1.94.9,4.06.71,5.33-1.06,2.37-3.31,4.92-6.59,5.42-10.89.19-1.66.61-3.29.92-4.94-3.63-1.69-7.36-3.14-10.79-5.11Zm19.93-158.12c-.85,7.42-.77,14.83.36,22.22.08.5-.4,1.08-.62,1.62-.31-.44-.83-.85-.91-1.33-1.25-7.58-1.35-15.19-.4-22.81.05-.41.35-.83.63-1.17.1-.12.48,0,.84.02.04.55.14,1.01.09,1.45Zm58.51,36.57c-5.92,2.21-11.34,5.3-16.35,9.15-.5.38-1.27.41-1.92.61.31-.63.45-1.48.94-1.87,5.07-3.97,10.64-7.11,16.68-9.38.44-.16.9-.35,1.35-.36.25,0,.57.28.73.53.1.17-.03.49-.06.74-.51.22-.93.43-1.37.59Zm-34.5-18.23c-1.29-.87-2.08-3.69-1-4.22,1.37-.67,3.22-1.05,4.65-.71,1.51.36,1.76,2.66.81,3.96-1.11,1.54-3,1.94-4.47.97Zm-84.69,37.06c-1.34-.87-1.44-2.48-.27-4.27.86-1.3,2.76-1.67,4.1-.79,1.37.9,1.69,2.65.75,4.05-1.05,1.57-3.03,2-4.58,1Zm-12.69-33.83c-.23-.33-.05-.95-.06-1.44.48.23,1.13.32,1.41.7,2.88,3.73,5.72,7.5,8.51,11.3.29.4.25,1.05.36,1.58-.47-.02-.94-.04-1.66-.07-2.89-4.05-5.76-8.04-8.57-12.07Zm25.2,3.71c-.94-.15-1.04-3.41-.11-4.41.76-.83,1.61-1.98,3.02-.94,1.29.94,1.81,3.15,1.1,4.87-1.34.19-2.73.68-4.01.47Zm111.78,11.96c-1.07-.32-1.17-2.58-.05-3.75.54-.56,1.79-.96,2.49-.74,1.18.38,1.2,2.15-.13,4.12-.45.09-1.49.61-2.31.37Zm-27.68-.45c1.52-1.8,3.08-3.58,4.68-5.31.26-.28.79-.31,1.19-.45.06.41.33,1,.15,1.21-1.75,2.04-3.57,4.03-5.39,6.01-.14.15-.48.12-1.34.29.34-.87.41-1.4.71-1.75Zm-117.51-7.52c-.24-.31-.08-.93-.11-1.41.45.16,1.04.19,1.33.5,1.39,1.46,2.73,2.97,4.01,4.53.26.32.19.92.28,1.39-.48-.01-.96-.02-1.43-.03-1.46-1.75-2.82-3.33-4.09-4.98Zm74.76-18.18c-.25-.06-.59-.41-.62-.66-.24-2.01-.43-4.02-.58-6.04-.02-.26.27-.67.52-.77.22-.09.81.13.83.28.33,2.25.6,4.51.89,6.84-.47.18-.79.42-1.04.36Zm-39.86.14c-.89-1.49-1.71-3.03-2.49-4.58-.09-.19.11-.69.32-.81.22-.13.8-.09.89.06.92,1.56,1.78,3.14,2.61,4.74.1.19-.05.5-.11,1.02-.51-.17-1.07-.18-1.22-.44Zm-14.27,51.14c-.3-.94-.41-1.99-.33-2.98.01-.18,1.7-.5,1.76-.36.42.93.61,1.95,1.01,3.45-1.24-.04-2.37.1-2.43-.11Zm82.21-37.01c.18-.31.99-.25,1.51-.36.02.73.19,1.51,0,2.18-.08.27-.96.3-1.9.55.15-1.07.08-1.84.39-2.37Zm-87.76,41.07c-.37-.28-.59-1.25-.38-1.65.19-.35,1.18-.58,1.62-.39.39.17.5.98.89,1.86-1,.11-1.78.44-2.13.18Zm21.41-35.76c-.35.35-1.09.32-1.66.46.01-.6-.18-1.32.09-1.77.24-.39.98-.48,2.08-.95-.24,1.18-.18,1.92-.51,2.26Zm65.36-8.66c-.31-.42-.44-1.18-.27-1.66.1-.26,1.08-.47,1.46-.28.34.17.39.91.68,1.69-.88.13-1.72.45-1.87.25Zm-63.63,5.47c-.34-.29-.32-.99-.46-1.5.58-.07,1.24-.35,1.7-.16.33.14.38.92.71,1.83-.96-.06-1.64.1-1.95-.17Zm-19.24,31.12c-.35.38-1.09.41-1.66.59-.12-.53-.51-1.21-.31-1.55.26-.43.98-.58,1.91-1.06.05,1.01.31,1.75.06,2.02Z"/><path class="cls-3" d="m437.01,183.15c1.85-11.31-4.26-18.93-15.51-19.23-4.65-.12-9.17.81-13.41,2.65-10.17,4.41-13.23,13.51-7.45,23.04,2.23,3.69,5.26,6.98,8.35,10.03,4.06,4.01,9.06,4.4,14.27,2.34,3.76-1.49,6.54-4.2,8.97-7.41,2.32-3.46,4.09-7.21,4.78-11.42Z"/><path class="cls-3" d="m300.62,247.69c.72.48,1.45.95,2.17,1.45.52.37,1.05.73,1.59,1.08,1.11.71,2.23,1.4,3.36,2.09.53.33,1.07.65,1.61.96.9.52,1.81,1.02,2.71,1.53.69.4,1.38.8,2.07,1.2.78.45,1.57.9,2.35,1.36.75.44,1.48.9,2.23,1.32,1.06.61,2.15,1.17,3.2,1.79,1.06.62,2.29.14,2.82-.75.67-1.12,1.37-2.22,2.07-3.32.36-.57.72-1.15,1.06-1.74.5-.83.98-1.67,1.47-2.51.43-.74.84-1.48,1.27-2.21.31-.54.63-1.08.96-1.61.38-.63.8-1.24,1.16-1.89.59-1.07,1.15-2.16,1.72-3.24.62-1.19,1.28-2.37,1.63-3.68.18-.67.27-1.36.18-2.02-.19-1.51-.76-2.89-1.71-4.09-.1-.13-.09-.23,0-.36.89-1.33,1.75-2.68,2.66-4,.36-.52.64-1.08.94-1.62.62-1.15,1.15-2.34,1.59-3.57.6-1.68,1.03-3.36.65-5.17-.35-1.65-1.18-2.99-2.46-4.06-.92-.77-1.94-1.4-3.02-1.95-1.9-.98-3.81-1.91-5.88-2.45-1.18-.3-2.36-.28-3.51.11-.9.3-1.6.91-2.29,1.56-.85.8-1.62,1.66-2.33,2.57-.91,1.17-1.69,2.43-2.46,3.7-.85,1.4-1.7,2.8-2.5,4.22-.15.27-.32.46-.7.32-.22-.08-.47-.08-.71-.09-1.34-.07-2.64.1-3.82.82-.83.51-1.49,1.19-2.06,2.01-.89,1.28-1.75,2.6-2.7,3.84-.28.37-.52.78-.78,1.16-.99,1.44-1.92,2.92-2.9,4.36-.38.56-.75,1.14-1.13,1.7-.83,1.22-1.57,2.5-2.39,3.73-.5.76-1.03,1.5-1.47,2.29-.49.88-.52,1.76.07,2.64.41.62,1.1.89,1.58,1.35.6.38,1.14.8,1.71,1.18Zm26.22-31.67c.76-.48,1.55-.48,2.39-.4.85.08,1.59.47,2.29.9.72.45,1.5.81,2.16,1.36,1.18.98,1.86,2.15,1.65,3.73-.07.56-.33,1.05-.6,1.51-.63,1.05-1.32,2.06-1.97,3.1-.72,1.16-1.43,2.34-2.13,3.51-.08.14-.14.17-.28.08-.74-.45-1.47-.91-2.22-1.33-.88-.49-1.77-.97-2.67-1.43-1.43-.73-2.88-1.44-4.32-2.15-.25-.12-.12-.31-.05-.44.27-.54.58-1.04.86-1.58.34-.66.74-1.29,1.11-1.94.57-.98,1.09-1.99,1.82-2.85.55-.81,1.14-1.55,1.98-2.08Zm-3.32,22.05c-.29.65-.69,1.24-1.07,1.85-.37.59-.68,1.22-1.05,1.81-.19.3-.37.61-.57.91-.72,1.05-1.31,2.18-2.01,3.24-.3.46-.56.93-.89,1.37-.36.49-.7.99-.89,1.57-.08.25-.51.32-.81.16-.83-.46-1.64-.97-2.43-1.49-.72-.47-1.51-.82-2.21-1.33-.33-.24-.35-.5-.14-.85.65-1.06,1.35-2.08,1.96-3.17.39-.71.88-1.35,1.29-2.05.5-.85,1.08-1.65,1.51-2.55.17-.36.43-.67.64-1,.41-.64.77-1.31,1.27-1.89.53-.6,1.15-1.06,1.92-1.32.9-.31,1.69-.14,2.41.46,1.3.84,1.8,2.62,1.06,4.27Z"/><path class="cls-2" d="m-88.52,438.25c-3.44-1.97-6.76-4.24-9.83-6.74-10.35-8.44-19.85-17.69-26.82-29.25-3.81-6.31-6.49-13.09-7.48-20.38-1.98-14.56,1.5-28.14,7.9-41.13,4.44-9.01,10.37-17.07,16.1-25.26.87-1.25,1.99-1.49,3.31-1.49,25.75-.1,44.53,11.4,56.66,34,.54,1.01,1.09,2.04,1.8,2.92,1.38,1.7,3.53,1.87,5.2.45,1.9-1.62,2.74-3.73,2.19-6.16-.31-1.36-.05-2.38.84-3.32,2.22-2.35,4.29-4.89,6.73-6.99,10.36-8.95,22.38-13.63,36.15-13.58,2.15,0,2.68-.59,1.91-2.31-4.58-10.23-11.1-18.94-20.05-25.78-1.28-.98-2.33-1.09-3.57,0-2.72,2.42-5.46,4.82-8.29,7.11-.53.43-1.52.29-2.3.42-.05-.73-.38-1.6-.1-2.16,1.57-3.14,3.22-6.24,4.97-9.28,1.53-2.67,1.54-2.94-1.15-4.25-7.07-3.45-14.44-6-22.15-7.61-1.88-.39-2.55.24-2.89,1.98-.88,4.5-1.84,8.99-2.89,13.46-.17.73-.92,1.33-1.41,1.98-.64-.58-1.65-1.04-1.87-1.75-1.39-4.51-2.65-9.05-3.84-13.62-.31-1.17-.69-1.91-1.97-2.18-8.17-1.69-16.4-2.61-24.75-1.77-2.75.28-2.79.35-2.6,3.1.36,5.23.71,10.47,1.06,15.7l-.69.25c-2.06-4.48-4.1-8.98-6.22-13.44-.34-.72-.99-1.78-1.56-1.82-4.94-.36-9.73.5-14.53,2.03.83,2.05,1.62,3.84,2.26,5.69.17.49-.12,1.13-.19,1.7-.42-.35-1.03-.62-1.23-1.07-.86-1.89-1.59-3.84-2.49-6.05-3.36,1.52-6.67,3.01-9.98,4.51-1.29.59-1.39,1.46-.72,2.63,1.21,2.11,2.44,4.21,3.47,6.41.33.71.07,1.69.08,2.55-.86-.13-1.88,0-2.54-.43-2.49-1.62-4.9-3.37-7.25-5.18-1.27-.98-2.3-.93-3.65-.11-7.88,4.8-15.12,10.38-21.58,16.97-2.43,2.48-2.39,2.44.27,4.55.67.53,1.47,1.47,1.42,2.16-.04.55-1.22,1.21-2.01,1.47-3.45,1.13-6.1,3.16-7.61,6.5-.93,2.06-.62,2.56,1.57,3.08,3.23.76,6.3,1.86,8.9,4.19-.2.37-.34.67-.52.94-.45.67-.89,1.36-1.4,1.99-7.13,8.8-11.61,18.77-13.01,30.03-1.67,13.43,1.72,25.28,11.56,34.9,2.76,2.7,6.02,4.07,10.1,3.37,3.36-.58,6.83-.91,10.23-.82,3.33.09,4.52,2.56,3.04,5.55-.54,1.09-1.25,2.09-1.8,3.17-1.05,2.06-.16,3.98,2.11,4.41.97.18,2,.12,3,.09,1.48-.05,2.96-.29,4.43-.23,3.09.13,4.62,2.41,3.15,5.07-1.34,2.43-3.03,4.75-4.92,6.78-4.1,4.4-5.02,8.14-.7,12.2,1.91,1.8,3.86,3.61,6.03,5.06,4.32,2.87,8.67,5.73,13.25,8.15,5.88,3.11,11.98,5.82,18.03,8.62,1.94.9,4.06.71,5.33-1.06,2.37-3.31,4.92-6.59,5.42-10.89.19-1.66.61-3.29.92-4.94-3.63-1.69-7.36-3.14-10.79-5.11Zm19.93-158.12c-.85,7.42-.77,14.83.36,22.22.08.5-.4,1.08-.62,1.62-.31-.44-.83-.85-.91-1.33-1.25-7.58-1.35-15.19-.4-22.81.05-.41.35-.83.63-1.17.1-.12.48,0,.84.02.04.55.14,1.01.09,1.45Zm58.51,36.57c-5.92,2.21-11.34,5.3-16.35,9.15-.5.38-1.27.41-1.92.61.31-.63.45-1.48.94-1.87,5.07-3.97,10.64-7.11,16.68-9.38.44-.16.9-.35,1.35-.36.25,0,.57.28.73.53.1.17-.03.49-.06.74-.51.22-.93.43-1.37.59Zm-34.5-18.23c-1.29-.87-2.08-3.69-1-4.22,1.37-.67,3.22-1.05,4.65-.71,1.51.36,1.76,2.66.81,3.96-1.11,1.54-3,1.94-4.47.97Zm-84.69,37.06c-1.34-.87-1.44-2.48-.27-4.27.86-1.3,2.76-1.67,4.1-.79,1.37.9,1.69,2.65.75,4.05-1.05,1.57-3.03,2-4.58,1Zm-12.69-33.83c-.23-.33-.05-.95-.06-1.44.48.23,1.13.32,1.41.7,2.88,3.73,5.72,7.5,8.51,11.3.29.4.25,1.05.36,1.58-.47-.02-.94-.04-1.66-.07-2.89-4.05-5.76-8.04-8.57-12.07Zm25.2,3.71c-.94-.15-1.04-3.41-.11-4.41.76-.83,1.61-1.98,3.02-.94,1.29.94,1.81,3.15,1.1,4.87-1.34.19-2.73.68-4.01.47Zm111.78,11.96c-1.07-.32-1.17-2.58-.05-3.75.54-.56,1.79-.96,2.49-.74,1.18.38,1.2,2.15-.13,4.12-.45.09-1.49.61-2.31.37Zm-27.68-.45c1.52-1.8,3.08-3.58,4.68-5.31.26-.28.79-.31,1.19-.45.06.41.33,1,.15,1.21-1.75,2.04-3.57,4.03-5.39,6.01-.14.15-.48.12-1.34.29.34-.87.41-1.4.71-1.75Zm-117.51-7.52c-.24-.31-.08-.93-.11-1.41.45.16,1.04.19,1.33.5,1.39,1.46,2.73,2.97,4.01,4.53.26.32.19.92.28,1.39-.48-.01-.96-.02-1.43-.03-1.46-1.75-2.82-3.33-4.09-4.98Zm74.76-18.18c-.25-.06-.59-.41-.62-.66-.24-2.01-.43-4.02-.58-6.04-.02-.26.27-.67.52-.77.22-.09.81.13.83.28.33,2.25.6,4.51.89,6.84-.47.18-.79.42-1.04.36Zm-39.86.14c-.89-1.49-1.71-3.03-2.49-4.58-.09-.19.11-.69.32-.81.22-.13.8-.09.89.06.92,1.56,1.78,3.14,2.61,4.74.1.19-.05.5-.11,1.02-.51-.17-1.07-.18-1.22-.44Zm-14.27,51.14c-.3-.94-.41-1.99-.33-2.98.01-.18,1.7-.5,1.76-.36.42.93.61,1.95,1.01,3.45-1.24-.04-2.37.1-2.43-.11Zm82.21-37.01c.18-.31.99-.25,1.51-.36.02.73.19,1.51,0,2.18-.08.27-.96.3-1.9.55.15-1.07.08-1.84.39-2.37Zm-87.76,41.07c-.37-.28-.59-1.25-.38-1.65.19-.35,1.18-.58,1.62-.39.39.17.5.98.89,1.86-1,.11-1.78.44-2.13.18Zm21.41-35.76c-.35.35-1.09.32-1.66.46.01-.6-.18-1.32.09-1.77.24-.39.98-.48,2.08-.95-.24,1.18-.18,1.92-.51,2.26Zm65.36-8.66c-.31-.42-.44-1.18-.27-1.66.1-.26,1.08-.47,1.46-.28.34.17.39.91.68,1.69-.88.13-1.72.45-1.87.25Zm-63.63,5.47c-.34-.29-.32-.99-.46-1.5.58-.07,1.24-.35,1.7-.16.33.14.38.92.71,1.83-.96-.06-1.64.1-1.95-.17Zm-19.24,31.12c-.35.38-1.09.41-1.66.59-.12-.53-.51-1.21-.31-1.55.26-.43.98-.58,1.91-1.06.05,1.01.31,1.75.06,2.02Z"/><path class="cls-2" d="m-21.05,390.29c.98.63,1.97,1.25,2.94,1.91.71.49,1.43.97,2.16,1.43,1.5.94,3.03,1.84,4.56,2.75.72.43,1.45.86,2.19,1.27,1.22.68,2.45,1.34,3.67,2.01.94.52,1.87,1.06,2.81,1.58,1.06.6,2.13,1.19,3.18,1.79,1.01.58,2.01,1.18,3.03,1.75,1.44.8,2.91,1.54,4.34,2.36,1.44.82,3.09.15,3.79-1.06.88-1.52,1.81-3.01,2.72-4.51.48-.78.95-1.57,1.4-2.36.65-1.13,1.3-2.27,1.94-3.41.56-1,1.11-2,1.67-3,.41-.73.83-1.46,1.26-2.19.51-.86,1.06-1.69,1.53-2.56.78-1.45,1.52-2.92,2.26-4.39.82-1.61,1.68-3.21,2.13-4.98.23-.9.33-1.83.21-2.73-.28-2.03-1.07-3.87-2.37-5.48-.14-.17-.13-.31-.02-.49,1.17-1.81,2.32-3.63,3.51-5.43.47-.71.85-1.46,1.23-2.2.81-1.56,1.51-3.17,2.08-4.84.78-2.27,1.33-4.54.78-6.98-.5-2.22-1.65-4.01-3.38-5.43-1.25-1.03-2.64-1.85-4.1-2.58-2.57-1.28-5.16-2.51-7.97-3.2-1.6-.39-3.18-.33-4.72.21-1.2.42-2.14,1.25-3.06,2.14-1.13,1.09-2.15,2.26-3.1,3.5-1.21,1.59-2.23,3.3-3.25,5.02-1.12,1.9-2.24,3.8-3.3,5.73-.2.37-.43.63-.93.45-.3-.11-.64-.1-.96-.11-1.81-.07-3.56.18-5.12,1.17-1.12.71-1.99,1.63-2.74,2.74-1.18,1.74-2.31,3.53-3.57,5.22-.37.5-.69,1.05-1.04,1.57-1.31,1.96-2.54,3.96-3.84,5.93-.51.77-.99,1.55-1.49,2.31-1.09,1.66-2.07,3.4-3.15,5.07-.66,1.03-1.36,2.03-1.94,3.11-.64,1.19-.67,2.38.14,3.55.57.82,1.49,1.18,2.15,1.79.82.51,1.55,1.06,2.32,1.56Zm34.78-43.1c1.01-.66,2.08-.67,3.21-.57,1.15.1,2.15.6,3.1,1.17.98.59,2.03,1.07,2.94,1.8,1.6,1.29,2.54,2.86,2.28,4.99-.09.75-.42,1.42-.78,2.04-.83,1.43-1.74,2.8-2.6,4.21-.96,1.58-1.89,3.17-2.82,4.77-.11.19-.19.23-.37.12-1-.59-2-1.2-3.02-1.76-1.19-.65-2.4-1.28-3.62-1.88-1.94-.96-3.9-1.89-5.85-2.83-.34-.16-.17-.41-.08-.6.35-.73.77-1.42,1.13-2.14.45-.9.97-1.75,1.46-2.63.75-1.33,1.43-2.7,2.4-3.87.73-1.1,1.51-2.11,2.62-2.84Zm-4.1,29.76c-.38.89-.91,1.69-1.41,2.51-.48.81-.9,1.65-1.39,2.46-.25.41-.49.83-.76,1.23-.95,1.43-1.73,2.96-2.65,4.4-.39.62-.74,1.27-1.17,1.86-.48.66-.93,1.34-1.18,2.14-.11.34-.68.45-1.08.23-1.13-.61-2.22-1.27-3.3-1.96-.97-.62-2.05-1.08-2.99-1.75-.44-.32-.48-.67-.2-1.14.85-1.44,1.79-2.83,2.58-4.3.51-.96,1.17-1.84,1.7-2.78.65-1.16,1.43-2.25,1.99-3.46.22-.48.57-.91.85-1.36.54-.87,1.01-1.78,1.68-2.56.7-.82,1.53-1.45,2.56-1.81,1.21-.43,2.27-.21,3.25.58,1.76,1.1,2.47,3.5,1.5,5.74Z"/><path class="cls-2" d="m117.02,438.25c-3.44-1.97-6.76-4.24-9.83-6.74-10.35-8.44-19.85-17.69-26.82-29.25-3.81-6.31-6.49-13.09-7.48-20.38-1.98-14.56,1.5-28.14,7.9-41.13,4.44-9.01,10.37-17.07,16.1-25.26.87-1.25,1.99-1.49,3.31-1.49,25.75-.1,44.53,11.4,56.66,34,.54,1.01,1.09,2.04,1.8,2.92,1.38,1.7,3.53,1.87,5.2.45,1.9-1.62,2.74-3.73,2.19-6.16-.31-1.36-.05-2.38.84-3.32,2.22-2.35,4.29-4.89,6.73-6.99,10.36-8.95,22.38-13.63,36.15-13.58,2.15,0,2.68-.59,1.91-2.31-4.58-10.23-11.1-18.94-20.05-25.78-1.28-.98-2.33-1.09-3.57,0-2.72,2.42-5.46,4.82-8.29,7.11-.53.43-1.52.29-2.3.42-.05-.73-.38-1.6-.1-2.16,1.57-3.14,3.22-6.24,4.97-9.28,1.53-2.67,1.54-2.94-1.15-4.25-7.07-3.45-14.44-6-22.15-7.61-1.88-.39-2.55.24-2.89,1.98-.88,4.5-1.84,8.99-2.89,13.46-.17.73-.92,1.33-1.41,1.98-.64-.58-1.65-1.04-1.87-1.75-1.39-4.51-2.65-9.05-3.84-13.62-.31-1.17-.69-1.91-1.97-2.18-8.17-1.69-16.4-2.61-24.75-1.77-2.75.28-2.79.35-2.6,3.1.36,5.23.71,10.47,1.06,15.7l-.69.25c-2.06-4.48-4.1-8.98-6.22-13.44-.34-.72-.99-1.78-1.56-1.82-4.94-.36-9.73.5-14.53,2.03.83,2.05,1.62,3.84,2.26,5.69.17.49-.12,1.13-.19,1.7-.42-.35-1.03-.62-1.23-1.07-.86-1.89-1.59-3.84-2.49-6.05-3.36,1.52-6.67,3.01-9.98,4.51-1.29.59-1.39,1.46-.72,2.63,1.21,2.11,2.44,4.21,3.47,6.41.33.71.07,1.69.08,2.55-.86-.13-1.88,0-2.54-.43-2.49-1.62-4.9-3.37-7.25-5.18-1.27-.98-2.3-.93-3.65-.11-7.88,4.8-15.12,10.38-21.58,16.97-2.43,2.48-2.39,2.44.27,4.55.67.53,1.47,1.47,1.42,2.16-.04.55-1.22,1.21-2.01,1.47-3.45,1.13-6.1,3.16-7.61,6.5-.93,2.06-.62,2.56,1.57,3.08,3.23.76,6.3,1.86,8.9,4.19-.2.37-.34.67-.52.94-.45.67-.89,1.36-1.4,1.99-7.13,8.8-11.61,18.77-13.01,30.03-1.67,13.43,1.72,25.28,11.56,34.9,2.76,2.7,6.02,4.07,10.1,3.37,3.36-.58,6.83-.91,10.23-.82,3.33.09,4.52,2.56,3.04,5.55-.54,1.09-1.25,2.09-1.8,3.17-1.05,2.06-.16,3.98,2.11,4.41.97.18,2,.12,3,.09,1.48-.05,2.96-.29,4.43-.23,3.09.13,4.62,2.41,3.15,5.07-1.34,2.43-3.03,4.75-4.92,6.78-4.1,4.4-5.02,8.14-.7,12.2,1.91,1.8,3.86,3.61,6.03,5.06,4.32,2.87,8.67,5.73,13.25,8.15,5.88,3.11,11.98,5.82,18.03,8.62,1.94.9,4.06.71,5.33-1.06,2.37-3.31,4.92-6.59,5.42-10.89.19-1.66.61-3.29.92-4.94-3.63-1.69-7.36-3.14-10.79-5.11Zm19.93-158.12c-.85,7.42-.77,14.83.36,22.22.08.5-.4,1.08-.62,1.62-.31-.44-.83-.85-.91-1.33-1.25-7.58-1.35-15.19-.4-22.81.05-.41.35-.83.63-1.17.1-.12.48,0,.84.02.04.55.14,1.01.09,1.45Zm58.51,36.57c-5.92,2.21-11.34,5.3-16.35,9.15-.5.38-1.27.41-1.92.61.31-.63.45-1.48.94-1.87,5.07-3.97,10.64-7.11,16.68-9.38.44-.16.9-.35,1.35-.36.25,0,.57.28.73.53.1.17-.03.49-.06.74-.51.22-.93.43-1.37.59Zm-34.5-18.23c-1.29-.87-2.08-3.69-1-4.22,1.37-.67,3.22-1.05,4.65-.71,1.51.36,1.76,2.66.81,3.96-1.11,1.54-3,1.94-4.47.97Zm-84.69,37.06c-1.34-.87-1.44-2.48-.27-4.27.86-1.3,2.76-1.67,4.1-.79,1.37.9,1.69,2.65.75,4.05-1.05,1.57-3.03,2-4.58,1Zm-12.69-33.83c-.23-.33-.05-.95-.06-1.44.48.23,1.13.32,1.41.7,2.88,3.73,5.72,7.5,8.51,11.3.29.4.25,1.05.36,1.58-.47-.02-.94-.04-1.66-.07-2.89-4.05-5.76-8.04-8.57-12.07Zm25.2,3.71c-.94-.15-1.04-3.41-.11-4.41.76-.83,1.61-1.98,3.02-.94,1.29.94,1.81,3.15,1.1,4.87-1.34.19-2.73.68-4.01.47Zm111.78,11.96c-1.07-.32-1.17-2.58-.05-3.75.54-.56,1.79-.96,2.49-.74,1.18.38,1.2,2.15-.13,4.12-.45.09-1.49.61-2.31.37Zm-27.68-.45c1.52-1.8,3.08-3.58,4.68-5.31.26-.28.79-.31,1.19-.45.06.41.33,1,.15,1.21-1.75,2.04-3.57,4.03-5.39,6.01-.14.15-.48.12-1.34.29.34-.87.41-1.4.71-1.75Zm-117.51-7.52c-.24-.31-.08-.93-.11-1.41.45.16,1.04.19,1.33.5,1.39,1.46,2.73,2.97,4.01,4.53.26.32.19.92.28,1.39-.48-.01-.96-.02-1.43-.03-1.46-1.75-2.82-3.33-4.09-4.98Zm74.76-18.18c-.25-.06-.59-.41-.62-.66-.24-2.01-.43-4.02-.58-6.04-.02-.26.27-.67.52-.77.22-.09.81.13.83.28.33,2.25.6,4.51.89,6.84-.47.18-.79.42-1.04.36Zm-39.86.14c-.89-1.49-1.71-3.03-2.49-4.58-.09-.19.11-.69.32-.81.22-.13.8-.09.89.06.92,1.56,1.78,3.14,2.61,4.74.1.19-.05.5-.11,1.02-.51-.17-1.07-.18-1.22-.44Zm-14.27,51.14c-.3-.94-.41-1.99-.33-2.98.01-.18,1.7-.5,1.76-.36.42.93.61,1.95,1.01,3.45-1.24-.04-2.37.1-2.43-.11Zm82.21-37.01c.18-.31.99-.25,1.51-.36.02.73.19,1.51,0,2.18-.08.27-.96.3-1.9.55.15-1.07.08-1.84.39-2.37Zm-87.76,41.07c-.37-.28-.59-1.25-.38-1.65.19-.35,1.18-.58,1.62-.39.39.17.5.98.89,1.86-1,.11-1.78.44-2.13.18Zm21.41-35.76c-.35.35-1.09.32-1.66.46.01-.6-.18-1.32.09-1.77.24-.39.98-.48,2.08-.95-.24,1.18-.18,1.92-.51,2.26Zm65.36-8.66c-.31-.42-.44-1.18-.27-1.66.1-.26,1.08-.47,1.46-.28.34.17.39.91.68,1.69-.88.13-1.72.45-1.87.25Zm-63.63,5.47c-.34-.29-.32-.99-.46-1.5.58-.07,1.24-.35,1.7-.16.33.14.38.92.71,1.83-.96-.06-1.64.1-1.95-.17Zm-19.24,31.12c-.35.38-1.09.41-1.66.59-.12-.53-.51-1.21-.31-1.55.26-.43.98-.58,1.91-1.06.05,1.01.31,1.75.06,2.02Z"/><path class="cls-3" d="m128.71,382.91c1.85-11.31-4.26-18.93-15.51-19.23-4.65-.12-9.17.81-13.41,2.65-10.17,4.41-13.23,13.51-7.45,23.04,2.23,3.69,5.26,6.98,8.35,10.03,4.06,4.01,9.06,4.4,14.27,2.34,3.76-1.49,6.54-4.2,8.97-7.41,2.32-3.46,4.09-7.21,4.78-11.42Z"/><path class="cls-3" d="m164.25,409.39c1.33-8.62-3.7-14.77-12.42-14.95-5.45-.11-10.58,1.31-15.2,4.23-5.87,3.7-7.79,10.5-4.88,16.82,1.78,3.86,4.34,7.11,7.54,9.9,3.24,2.82,6.84,3.61,10.92,2.37,4.2-1.28,7.19-4.13,9.62-7.39,2.33-3.47,3.82-7.05,4.43-10.98Z"/><path class="cls-2" d="m164.72,353.6c6.52,3.04,9.65,36.9,4.22,42.56,3.09-14.46,2.25-28.54-4.22-42.56Z"/><path class="cls-2" d="m142.25,332.56c-.75-.44-1.58-.8-2.25-1.35-6.67-5.52-14.03-9.83-22.31-12.38-2.81-.87-5.81-1.14-8.72-1.67-.57-.1-1.15-.15-1.73-.22-.04-.23-.08-.47-.12-.7.62-.13,1.3-.47,1.87-.34,4.77,1.11,9.69,1.87,14.25,3.58,6.52,2.45,12.29,6.42,17.74,10.77.47.38.88.83,1.3,1.27.13.13.17.34.26.51-.09.17-.19.35-.28.52Z"/><path class="cls-2" d="m138.42,333.93c-5.55-3.43-11.1-6.87-16.84-10.42,2.33-.66,15.57,7.34,16.84,10.42Z"/><path class="cls-2" d="m166.28,378.37c-.69-3.38-1.39-6.77-2.08-10.15,1.86.85,3.46,8.18,2.77,10.02-.23.04-.46.09-.69.13Z"/><path class="cls-2" d="m144.56,337.06c1.77-.08,4.82,2.51,5.7,4.79-2.74-.97-3.94-3.21-5.7-4.79Z"/><path class="cls-2" d="m161.04,377.52c.03-1.09.06-2.18.09-3.27.25,0,.49,0,.74,0,.74,1.08.69,2.18-.11,3.31-.24-.01-.48-.02-.72-.03Z"/><path class="cls-2" d="m184.49,390.29c.98.63,1.97,1.25,2.94,1.91.71.49,1.43.97,2.16,1.43,1.5.94,3.03,1.84,4.56,2.75.72.43,1.45.86,2.19,1.27,1.22.68,2.45,1.34,3.67,2.01.94.52,1.87,1.06,2.81,1.58,1.06.6,2.13,1.19,3.18,1.79,1.01.58,2.01,1.18,3.03,1.75,1.44.8,2.91,1.54,4.34,2.36,1.44.82,3.09.15,3.79-1.06.88-1.52,1.81-3.01,2.72-4.51.48-.78.95-1.57,1.4-2.36.65-1.13,1.3-2.27,1.94-3.41.56-1,1.11-2,1.67-3,.41-.73.83-1.46,1.26-2.19.51-.86,1.06-1.69,1.53-2.56.78-1.45,1.52-2.92,2.26-4.39.82-1.61,1.68-3.21,2.13-4.98.23-.9.33-1.83.21-2.73-.28-2.03-1.07-3.87-2.37-5.48-.14-.17-.13-.31-.02-.49,1.17-1.81,2.32-3.63,3.51-5.43.47-.71.85-1.46,1.23-2.2.81-1.56,1.51-3.17,2.08-4.84.78-2.27,1.33-4.54.78-6.98-.5-2.22-1.65-4.01-3.38-5.43-1.25-1.03-2.64-1.85-4.1-2.58-2.57-1.28-5.16-2.51-7.97-3.2-1.6-.39-3.18-.33-4.72.21-1.2.42-2.14,1.25-3.06,2.14-1.13,1.09-2.15,2.26-3.1,3.5-1.21,1.59-2.23,3.3-3.25,5.02-1.12,1.9-2.24,3.8-3.3,5.73-.2.37-.43.63-.93.45-.3-.11-.64-.1-.96-.11-1.81-.07-3.56.18-5.12,1.17-1.12.71-1.99,1.63-2.74,2.74-1.18,1.74-2.31,3.53-3.57,5.22-.37.5-.69,1.05-1.04,1.57-1.31,1.96-2.54,3.96-3.84,5.93-.51.77-.99,1.55-1.49,2.31-1.09,1.66-2.07,3.4-3.15,5.07-.66,1.03-1.36,2.03-1.94,3.11-.64,1.19-.67,2.38.14,3.55.57.82,1.49,1.18,2.15,1.79.82.51,1.55,1.06,2.32,1.56Zm34.78-43.1c1.01-.66,2.08-.67,3.21-.57,1.15.1,2.15.6,3.1,1.17.98.59,2.03,1.07,2.94,1.8,1.6,1.29,2.54,2.86,2.28,4.99-.09.75-.42,1.42-.78,2.04-.83,1.43-1.74,2.8-2.6,4.21-.96,1.58-1.89,3.17-2.82,4.77-.11.19-.19.23-.37.12-1-.59-2-1.2-3.02-1.76-1.19-.65-2.4-1.28-3.62-1.88-1.94-.96-3.9-1.89-5.85-2.83-.34-.16-.17-.41-.08-.6.35-.73.77-1.42,1.13-2.14.45-.9.97-1.75,1.46-2.63.75-1.33,1.43-2.7,2.4-3.87.73-1.1,1.51-2.11,2.62-2.84Zm-4.1,29.76c-.38.89-.91,1.69-1.41,2.51-.48.81-.9,1.65-1.39,2.46-.25.41-.49.83-.76,1.23-.95,1.43-1.73,2.96-2.65,4.4-.39.62-.74,1.27-1.17,1.86-.48.66-.93,1.34-1.18,2.14-.11.34-.68.45-1.08.23-1.13-.61-2.22-1.27-3.3-1.96-.97-.62-2.05-1.08-2.99-1.75-.44-.32-.48-.67-.2-1.14.85-1.44,1.79-2.83,2.58-4.3.51-.96,1.17-1.84,1.7-2.78.65-1.16,1.43-2.25,1.99-3.46.22-.48.57-.91.85-1.36.54-.87,1.01-1.78,1.68-2.56.7-.82,1.53-1.45,2.56-1.81,1.21-.43,2.27-.21,3.25.58,1.76,1.1,2.47,3.5,1.5,5.74Z"/><path class="cls-2" d="m322.55,438.25c-3.44-1.97-6.76-4.24-9.83-6.74-10.35-8.44-19.85-17.69-26.82-29.25-3.81-6.31-6.49-13.09-7.48-20.38-1.98-14.56,1.5-28.14,7.9-41.13,4.44-9.01,10.37-17.07,16.1-25.26.87-1.25,1.99-1.49,3.31-1.49,25.75-.1,44.53,11.4,56.66,34,.54,1.01,1.09,2.04,1.8,2.92,1.38,1.7,3.53,1.87,5.2.45,1.9-1.62,2.74-3.73,2.19-6.16-.31-1.36-.05-2.38.84-3.32,2.22-2.35,4.29-4.89,6.73-6.99,10.36-8.95,22.38-13.63,36.15-13.58,2.15,0,2.68-.59,1.91-2.31-4.58-10.23-11.1-18.94-20.05-25.78-1.28-.98-2.33-1.09-3.57,0-2.72,2.42-5.46,4.82-8.29,7.11-.53.43-1.52.29-2.3.42-.05-.73-.38-1.6-.1-2.16,1.57-3.14,3.22-6.24,4.97-9.28,1.53-2.67,1.54-2.94-1.15-4.25-7.07-3.45-14.44-6-22.15-7.61-1.88-.39-2.55.24-2.89,1.98-.88,4.5-1.84,8.99-2.89,13.46-.17.73-.92,1.33-1.41,1.98-.64-.58-1.65-1.04-1.87-1.75-1.39-4.51-2.65-9.05-3.84-13.62-.31-1.17-.69-1.91-1.97-2.18-8.17-1.69-16.4-2.61-24.75-1.77-2.75.28-2.79.35-2.6,3.1.36,5.23.71,10.47,1.06,15.7l-.69.25c-2.06-4.48-4.1-8.98-6.22-13.44-.34-.72-.99-1.78-1.56-1.82-4.94-.36-9.73.5-14.53,2.03.83,2.05,1.62,3.84,2.26,5.69.17.49-.12,1.13-.19,1.7-.42-.35-1.03-.62-1.23-1.07-.86-1.89-1.59-3.84-2.49-6.05-3.36,1.52-6.67,3.01-9.98,4.51-1.29.59-1.39,1.46-.72,2.63,1.21,2.11,2.44,4.21,3.47,6.41.33.71.07,1.69.08,2.55-.86-.13-1.88,0-2.54-.43-2.49-1.62-4.9-3.37-7.25-5.18-1.27-.98-2.3-.93-3.65-.11-7.88,4.8-15.12,10.38-21.58,16.97-2.43,2.48-2.39,2.44.27,4.55.67.53,1.47,1.47,1.42,2.16-.04.55-1.22,1.21-2.01,1.47-3.45,1.13-6.1,3.16-7.61,6.5-.93,2.06-.62,2.56,1.57,3.08,3.23.76,6.3,1.86,8.9,4.19-.2.37-.34.67-.52.94-.45.67-.89,1.36-1.4,1.99-7.13,8.8-11.61,18.77-13.01,30.03-1.67,13.43,1.72,25.28,11.56,34.9,2.76,2.7,6.02,4.07,10.1,3.37,3.36-.58,6.83-.91,10.23-.82,3.33.09,4.52,2.56,3.04,5.55-.54,1.09-1.25,2.09-1.8,3.17-1.05,2.06-.16,3.98,2.11,4.41.97.18,2,.12,3,.09,1.48-.05,2.96-.29,4.43-.23,3.09.13,4.62,2.41,3.15,5.07-1.34,2.43-3.03,4.75-4.92,6.78-4.1,4.4-5.02,8.14-.7,12.2,1.91,1.8,3.86,3.61,6.03,5.06,4.32,2.87,8.67,5.73,13.25,8.15,5.88,3.11,11.98,5.82,18.03,8.62,1.94.9,4.06.71,5.33-1.06,2.37-3.31,4.92-6.59,5.42-10.89.19-1.66.61-3.29.92-4.94-3.63-1.69-7.36-3.14-10.79-5.11Zm19.93-158.12c-.85,7.42-.77,14.83.36,22.22.08.5-.4,1.08-.62,1.62-.31-.44-.83-.85-.91-1.33-1.25-7.58-1.35-15.19-.4-22.81.05-.41.35-.83.63-1.17.1-.12.48,0,.84.02.04.55.14,1.01.09,1.45Zm58.51,36.57c-5.92,2.21-11.34,5.3-16.35,9.15-.5.38-1.27.41-1.92.61.31-.63.45-1.48.94-1.87,5.07-3.97,10.64-7.11,16.68-9.38.44-.16.9-.35,1.35-.36.25,0,.57.28.73.53.1.17-.03.49-.06.74-.51.22-.93.43-1.37.59Zm-34.5-18.23c-1.29-.87-2.08-3.69-1-4.22,1.37-.67,3.22-1.05,4.65-.71,1.51.36,1.76,2.66.81,3.96-1.11,1.54-3,1.94-4.47.97Zm-84.69,37.06c-1.34-.87-1.44-2.48-.27-4.27.86-1.3,2.76-1.67,4.1-.79,1.37.9,1.69,2.65.75,4.05-1.05,1.57-3.03,2-4.58,1Zm-12.69-33.83c-.23-.33-.05-.95-.06-1.44.48.23,1.13.32,1.41.7,2.88,3.73,5.72,7.5,8.51,11.3.29.4.25,1.05.36,1.58-.47-.02-.94-.04-1.66-.07-2.89-4.05-5.76-8.04-8.57-12.07Zm25.2,3.71c-.94-.15-1.04-3.41-.11-4.41.76-.83,1.61-1.98,3.02-.94,1.29.94,1.81,3.15,1.1,4.87-1.34.19-2.73.68-4.01.47Zm111.78,11.96c-1.07-.32-1.17-2.58-.05-3.75.54-.56,1.79-.96,2.49-.74,1.18.38,1.2,2.15-.13,4.12-.45.09-1.49.61-2.31.37Zm-27.68-.45c1.52-1.8,3.08-3.58,4.68-5.31.26-.28.79-.31,1.19-.45.06.41.33,1,.15,1.21-1.75,2.04-3.57,4.03-5.39,6.01-.14.15-.48.12-1.34.29.34-.87.41-1.4.71-1.75Zm-117.51-7.52c-.24-.31-.08-.93-.11-1.41.45.16,1.04.19,1.33.5,1.39,1.46,2.73,2.97,4.01,4.53.26.32.19.92.28,1.39-.48-.01-.96-.02-1.43-.03-1.46-1.75-2.82-3.33-4.09-4.98Zm74.76-18.18c-.25-.06-.59-.41-.62-.66-.24-2.01-.43-4.02-.58-6.04-.02-.26.27-.67.52-.77.22-.09.81.13.83.28.33,2.25.6,4.51.89,6.84-.47.18-.79.42-1.04.36Zm-39.86.14c-.89-1.49-1.71-3.03-2.49-4.58-.09-.19.11-.69.32-.81.22-.13.8-.09.89.06.92,1.56,1.78,3.14,2.61,4.74.1.19-.05.5-.11,1.02-.51-.17-1.07-.18-1.22-.44Zm-14.27,51.14c-.3-.94-.41-1.99-.33-2.98.01-.18,1.7-.5,1.76-.36.42.93.61,1.95,1.01,3.45-1.24-.04-2.37.1-2.43-.11Zm82.21-37.01c.18-.31.99-.25,1.51-.36.02.73.19,1.51,0,2.18-.08.27-.96.3-1.9.55.15-1.07.08-1.84.39-2.37Zm-87.76,41.07c-.37-.28-.59-1.25-.38-1.65.19-.35,1.18-.58,1.62-.39.39.17.5.98.89,1.86-1,.11-1.78.44-2.13.18Zm21.41-35.76c-.35.35-1.09.32-1.66.46.01-.6-.18-1.32.09-1.77.24-.39.98-.48,2.08-.95-.24,1.18-.18,1.92-.51,2.26Zm65.36-8.66c-.31-.42-.44-1.18-.27-1.66.1-.26,1.08-.47,1.46-.28.34.17.39.91.68,1.69-.88.13-1.72.45-1.87.25Zm-63.63,5.47c-.34-.29-.32-.99-.46-1.5.58-.07,1.24-.35,1.7-.16.33.14.38.92.71,1.83-.96-.06-1.64.1-1.95-.17Zm-19.24,31.12c-.35.38-1.09.41-1.66.59-.12-.53-.51-1.21-.31-1.55.26-.43.98-.58,1.91-1.06.05,1.01.31,1.75.06,2.02Z"/><path class="cls-3" d="m334.25,382.91c1.85-11.31-4.26-18.93-15.51-19.23-4.65-.12-9.17.81-13.41,2.65-10.17,4.41-13.23,13.51-7.45,23.04,2.23,3.69,5.26,6.98,8.35,10.03,4.06,4.01,9.06,4.4,14.27,2.34,3.76-1.49,6.54-4.2,8.97-7.41,2.32-3.46,4.09-7.21,4.78-11.42Z"/><path class="cls-3" d="m369.79,409.39c1.33-8.62-3.7-14.77-12.42-14.95-5.45-.11-10.58,1.31-15.2,4.23-5.87,3.7-7.79,10.5-4.88,16.82,1.78,3.86,4.34,7.11,7.54,9.9,3.24,2.82,6.84,3.61,10.92,2.37,4.2-1.28,7.19-4.13,9.62-7.39,2.33-3.47,3.82-7.05,4.43-10.98Z"/><path class="cls-2" d="m370.26,353.6c6.52,3.04,9.65,36.9,4.22,42.56,3.09-14.46,2.25-28.54-4.22-42.56Z"/><path class="cls-2" d="m347.79,332.56c-.75-.44-1.58-.8-2.25-1.35-6.67-5.52-14.03-9.83-22.31-12.38-2.81-.87-5.81-1.14-8.72-1.67-.57-.1-1.15-.15-1.73-.22-.04-.23-.08-.47-.12-.7.62-.13,1.3-.47,1.87-.34,4.77,1.11,9.69,1.87,14.25,3.58,6.52,2.45,12.29,6.42,17.74,10.77.47.38.88.83,1.3,1.27.13.13.17.34.26.51-.09.17-.19.35-.28.52Z"/><path class="cls-2" d="m343.95,333.93c-5.55-3.43-11.1-6.87-16.84-10.42,2.33-.66,15.57,7.34,16.84,10.42Z"/><path class="cls-2" d="m371.81,378.37c-.69-3.38-1.39-6.77-2.08-10.15,1.86.85,3.46,8.18,2.77,10.02-.23.04-.46.09-.69.13Z"/><path class="cls-2" d="m350.1,337.06c1.77-.08,4.82,2.51,5.7,4.79-2.74-.97-3.94-3.21-5.7-4.79Z"/><path class="cls-2" d="m366.57,377.52c.03-1.09.06-2.18.09-3.27.25,0,.49,0,.74,0,.74,1.08.69,2.18-.11,3.31-.24-.01-.48-.02-.72-.03Z"/><path class="cls-2" d="m390.02,390.29c.98.63,1.97,1.25,2.94,1.91.71.49,1.43.97,2.16,1.43,1.5.94,3.03,1.84,4.56,2.75.72.43,1.45.86,2.19,1.27,1.22.68,2.45,1.34,3.67,2.01.94.52,1.87,1.06,2.81,1.58,1.06.6,2.13,1.19,3.18,1.79,1.01.58,2.01,1.18,3.03,1.75,1.44.8,2.91,1.54,4.34,2.36,1.44.82,3.09.15,3.79-1.06.88-1.52,1.81-3.01,2.72-4.51.48-.78.95-1.57,1.4-2.36.65-1.13,1.3-2.27,1.94-3.41.56-1,1.11-2,1.67-3,.41-.73.83-1.46,1.26-2.19.51-.86,1.06-1.69,1.53-2.56.78-1.45,1.52-2.92,2.26-4.39.82-1.61,1.68-3.21,2.13-4.98.23-.9.33-1.83.21-2.73-.28-2.03-1.07-3.87-2.37-5.48-.14-.17-.13-.31-.02-.49,1.17-1.81,2.32-3.63,3.51-5.43.47-.71.85-1.46,1.23-2.2.81-1.56,1.51-3.17,2.08-4.84.78-2.27,1.33-4.54.78-6.98-.5-2.22-1.65-4.01-3.38-5.43-1.25-1.03-2.64-1.85-4.1-2.58-2.57-1.28-5.16-2.51-7.97-3.2-1.6-.39-3.18-.33-4.72.21-1.2.42-2.14,1.25-3.06,2.14-1.13,1.09-2.15,2.26-3.1,3.5-1.21,1.59-2.23,3.3-3.25,5.02-1.12,1.9-2.24,3.8-3.3,5.73-.2.37-.43.63-.93.45-.3-.11-.64-.1-.96-.11-1.81-.07-3.56.18-5.12,1.17-1.12.71-1.99,1.63-2.74,2.74-1.18,1.74-2.31,3.53-3.57,5.22-.37.5-.69,1.05-1.04,1.57-1.31,1.96-2.54,3.96-3.84,5.93-.51.77-.99,1.55-1.49,2.31-1.09,1.66-2.07,3.4-3.15,5.07-.66,1.03-1.36,2.03-1.94,3.11-.64,1.19-.67,2.38.14,3.55.57.82,1.49,1.18,2.15,1.79.82.51,1.55,1.06,2.32,1.56Zm34.78-43.1c1.01-.66,2.08-.67,3.21-.57,1.15.1,2.15.6,3.1,1.17.98.59,2.03,1.07,2.94,1.8,1.6,1.29,2.54,2.86,2.28,4.99-.09.75-.42,1.42-.78,2.04-.83,1.43-1.74,2.8-2.6,4.21-.96,1.58-1.89,3.17-2.82,4.77-.11.19-.19.23-.37.12-1-.59-2-1.2-3.02-1.76-1.19-.65-2.4-1.28-3.62-1.88-1.94-.96-3.9-1.89-5.85-2.83-.34-.16-.17-.41-.08-.6.35-.73.77-1.42,1.13-2.14.45-.9.97-1.75,1.46-2.63.75-1.33,1.43-2.7,2.4-3.87.73-1.1,1.51-2.11,2.62-2.84Zm-4.1,29.76c-.38.89-.91,1.69-1.41,2.51-.48.81-.9,1.65-1.39,2.46-.25.41-.49.83-.76,1.23-.95,1.43-1.73,2.96-2.65,4.4-.39.62-.74,1.27-1.17,1.86-.48.66-.93,1.34-1.18,2.14-.11.34-.68.45-1.08.23-1.13-.61-2.22-1.27-3.3-1.96-.97-.62-2.05-1.08-2.99-1.75-.44-.32-.48-.67-.2-1.14.85-1.44,1.79-2.83,2.58-4.3.51-.96,1.17-1.84,1.7-2.78.65-1.16,1.43-2.25,1.99-3.46.22-.48.57-.91.85-1.36.54-.87,1.01-1.78,1.68-2.56.7-.82,1.53-1.45,2.56-1.81,1.21-.43,2.27-.21,3.25.58,1.76,1.1,2.47,3.5,1.5,5.74Z"/></pattern></defs><rect class="cls-4" width="529.74" height="529.74"/></svg>